<svg width="24" height="25" viewBox="0 0 24 25" fill="none" xmlns="http://www.w3.org/2000/svg">
<g clip-path="url(#clip0_1_12)">
<path d="M16.6 14.5C16.4 14.4 15.1 13.8 14.9 13.7C14.7 13.6 14.5 13.6 14.3 13.8C14.1 14 13.7 14.6 13.5 14.8C13.4 15 13.2 15 13 14.9C12.3 14.6 11.6 14.2 11 13.7C10.5 13.2 10 12.6 9.6 12C9.5 11.8 9.6 11.6 9.7 11.5C9.8 11.4 9.9 11.2 10.1 11.1C10.2 11 10.3 10.8 10.3 10.7C10.4 10.6 10.4 10.4 10.3 10.3C10.2 10.2 9.7 9.00001 9.5 8.50001C9.4 7.80001 9.2 7.80001 9 7.80001C8.9 7.80001 8.7 7.80001 8.5 7.80001C8.3 7.80001 8 8.00001 7.9 8.10001C7.3 8.70001 7 9.40001 7 10.2C7.1 11.1 7.4 12 8 12.8C9.1 14.4 10.5 15.7 12.2 16.5C12.7 16.7 13.1 16.9 13.6 17C14.1 17.2 14.6 17.2 15.2 17.1C15.9 17 16.5 16.5 16.9 15.9C17.1 15.5 17.1 15.1 17 14.7C17 14.7 16.8 14.6 16.6 14.5ZM19.1 5.40001C15.2 1.50001 8.9 1.50001 5 5.40001C1.8 8.60001 1.2 13.5 3.4 17.4L2 22.5L7.3 21.1C8.8 21.9 10.4 22.3 12 22.3C17.5 22.3 21.9 17.9 21.9 12.4C22 9.80001 20.9 7.30001 19.1 5.40001ZM16.4 19.4C15.1 20.2 13.6 20.7 12 20.7C10.5 20.7 9.1 20.3 7.8 19.6L7.5 19.4L4.4 20.2L5.2 17.2L5 16.9C2.6 12.9 3.8 7.90001 7.7 5.40001C11.6 2.90001 16.6 4.20001 19 8.00001C21.4 11.9 20.3 17 16.4 19.4Z" fill="#F9F9F9"/>
<path d="M16.1807 29H14.8408L9.39258 20.6055H9.33789C9.35156 20.8288 9.36751 21.084 9.38574 21.3711C9.40397 21.6536 9.41764 21.9567 9.42676 22.2803C9.44043 22.5993 9.44727 22.9251 9.44727 23.2578V29H8.36719V19.0059H9.7002L15.1279 27.373H15.1758C15.1667 27.2135 15.1553 26.988 15.1416 26.6963C15.1279 26.4001 15.1143 26.0833 15.1006 25.7461C15.0915 25.4043 15.0869 25.0876 15.0869 24.7959V19.0059H16.1807V29ZM25.1973 25.2402C25.1973 25.8555 25.1175 26.4046 24.958 26.8877C24.7985 27.3708 24.5684 27.7786 24.2676 28.1113C23.9668 28.444 23.6022 28.6992 23.1738 28.877C22.75 29.0501 22.2692 29.1367 21.7314 29.1367C21.2301 29.1367 20.7699 29.0501 20.3506 28.877C19.9359 28.6992 19.5758 28.444 19.2705 28.1113C18.9697 27.7786 18.735 27.3708 18.5664 26.8877C18.4023 26.4046 18.3203 25.8555 18.3203 25.2402C18.3203 24.4199 18.4593 23.7227 18.7373 23.1484C19.0153 22.5697 19.4118 22.1299 19.9268 21.8291C20.4463 21.5238 21.0638 21.3711 21.7793 21.3711C22.4629 21.3711 23.0599 21.5238 23.5703 21.8291C24.0853 22.1344 24.484 22.5765 24.7666 23.1553C25.0537 23.7295 25.1973 24.4245 25.1973 25.2402ZM19.4961 25.2402C19.4961 25.8418 19.5758 26.3636 19.7354 26.8057C19.8949 27.2477 20.141 27.5895 20.4736 27.8311C20.8063 28.0726 21.2347 28.1934 21.7588 28.1934C22.2783 28.1934 22.7044 28.0726 23.0371 27.8311C23.3743 27.5895 23.6227 27.2477 23.7822 26.8057C23.9417 26.3636 24.0215 25.8418 24.0215 25.2402C24.0215 24.6432 23.9417 24.1283 23.7822 23.6953C23.6227 23.2578 23.3766 22.9206 23.0439 22.6836C22.7113 22.4466 22.2806 22.3281 21.752 22.3281C20.9727 22.3281 20.4007 22.5856 20.0361 23.1006C19.6761 23.6156 19.4961 24.3288 19.4961 25.2402ZM23.7412 18.2744V18.4111C23.6501 18.5433 23.5247 18.7028 23.3652 18.8896C23.2103 19.0719 23.0371 19.2656 22.8457 19.4707C22.6543 19.6712 22.4606 19.8626 22.2646 20.0449C22.0732 20.2272 21.8955 20.3844 21.7314 20.5166H20.9727V20.3525C21.1185 20.1794 21.278 19.972 21.4512 19.7305C21.6243 19.4844 21.793 19.2337 21.957 18.9785C22.1211 18.7188 22.2578 18.484 22.3672 18.2744H23.7412ZM32.0059 26.9492C32.0059 27.4277 31.8851 27.8311 31.6436 28.1592C31.4066 28.4827 31.0648 28.7266 30.6182 28.8906C30.1761 29.0547 29.6475 29.1367 29.0322 29.1367C28.5081 29.1367 28.0547 29.0957 27.6719 29.0137C27.2891 28.9316 26.9541 28.8154 26.667 28.665V27.6191C26.9723 27.7695 27.3369 27.9062 27.7607 28.0293C28.1846 28.1523 28.6175 28.2139 29.0596 28.2139C29.7067 28.2139 30.1761 28.109 30.4678 27.8994C30.7594 27.6898 30.9053 27.4049 30.9053 27.0449C30.9053 26.8398 30.846 26.6598 30.7275 26.5049C30.6136 26.3454 30.4199 26.1927 30.1465 26.0469C29.873 25.8965 29.4948 25.7324 29.0117 25.5547C28.5332 25.3724 28.1185 25.1924 27.7676 25.0146C27.4212 24.8324 27.1523 24.6113 26.9609 24.3516C26.7741 24.0918 26.6807 23.7546 26.6807 23.3398C26.6807 22.7064 26.9359 22.221 27.4463 21.8838C27.9613 21.542 28.6357 21.3711 29.4697 21.3711C29.9209 21.3711 30.3424 21.4167 30.7344 21.5078C31.1309 21.5944 31.5 21.7129 31.8418 21.8633L31.459 22.7725C31.1491 22.6403 30.8187 22.5286 30.4678 22.4375C30.1169 22.3464 29.7591 22.3008 29.3945 22.3008C28.8704 22.3008 28.4671 22.3874 28.1846 22.5605C27.9066 22.7337 27.7676 22.9707 27.7676 23.2715C27.7676 23.5039 27.8314 23.6953 27.959 23.8457C28.0911 23.9961 28.3008 24.1374 28.5879 24.2695C28.875 24.4017 29.2533 24.5566 29.7227 24.7344C30.1921 24.9076 30.5977 25.0876 30.9395 25.2744C31.2812 25.4567 31.5433 25.68 31.7256 25.9443C31.9124 26.2041 32.0059 26.5391 32.0059 26.9492ZM40.4688 29.1367C39.7943 29.1367 39.1995 28.9977 38.6846 28.7197C38.1696 28.4417 37.7686 28.0179 37.4814 27.4482C37.1943 26.8786 37.0508 26.1608 37.0508 25.2949C37.0508 24.388 37.2012 23.6475 37.502 23.0732C37.8073 22.4945 38.2266 22.0661 38.7598 21.7881C39.293 21.5101 39.8991 21.3711 40.5781 21.3711C40.9518 21.3711 41.3118 21.4098 41.6582 21.4873C42.0091 21.5602 42.2962 21.6536 42.5195 21.7676L42.1777 22.7178C41.9499 22.6266 41.6855 22.5446 41.3848 22.4717C41.0885 22.3988 40.8105 22.3623 40.5508 22.3623C40.0312 22.3623 39.5983 22.474 39.252 22.6973C38.9102 22.9206 38.6527 23.2487 38.4795 23.6816C38.3109 24.1146 38.2266 24.6478 38.2266 25.2812C38.2266 25.8874 38.3086 26.4046 38.4727 26.833C38.6413 27.2614 38.8896 27.5895 39.2178 27.8174C39.5505 28.0407 39.9652 28.1523 40.4619 28.1523C40.8584 28.1523 41.2161 28.1113 41.5352 28.0293C41.8542 27.9427 42.1436 27.8424 42.4033 27.7285V28.7402C42.1527 28.8678 41.8724 28.9658 41.5625 29.0342C41.2572 29.1025 40.8926 29.1367 40.4688 29.1367ZM47.585 21.3711C47.7354 21.3711 47.8926 21.3802 48.0566 21.3984C48.2207 21.4121 48.3665 21.4326 48.4941 21.46L48.3506 22.5127C48.2275 22.4808 48.0908 22.4557 47.9404 22.4375C47.79 22.4193 47.6488 22.4102 47.5166 22.4102C47.2158 22.4102 46.931 22.4717 46.6621 22.5947C46.3978 22.7132 46.1654 22.8864 45.9648 23.1143C45.7643 23.3376 45.6071 23.6087 45.4932 23.9277C45.3792 24.2422 45.3223 24.5931 45.3223 24.9805V29H44.1807V21.5078H45.124L45.2471 22.8887H45.2949C45.4499 22.6107 45.6367 22.3577 45.8555 22.1299C46.0742 21.8975 46.3271 21.7129 46.6143 21.5762C46.9059 21.4395 47.2295 21.3711 47.585 21.3711ZM51.0439 21.5078V29H49.9092V21.5078H51.0439ZM50.4902 18.7051C50.6771 18.7051 50.8366 18.7666 50.9688 18.8896C51.1055 19.0081 51.1738 19.195 51.1738 19.4502C51.1738 19.7008 51.1055 19.8877 50.9688 20.0107C50.8366 20.1338 50.6771 20.1953 50.4902 20.1953C50.2943 20.1953 50.1302 20.1338 49.998 20.0107C49.8704 19.8877 49.8066 19.7008 49.8066 19.4502C49.8066 19.195 49.8704 19.0081 49.998 18.8896C50.1302 18.7666 50.2943 18.7051 50.4902 18.7051ZM56.2529 21.3848C57.1462 21.3848 57.8092 21.5853 58.2422 21.9863C58.6751 22.3874 58.8916 23.0277 58.8916 23.9072V29H58.0645L57.8457 27.8926H57.791C57.5814 28.166 57.3626 28.3962 57.1348 28.583C56.9069 28.7653 56.6426 28.9043 56.3418 29C56.0456 29.0911 55.681 29.1367 55.248 29.1367C54.7923 29.1367 54.3867 29.057 54.0312 28.8975C53.6803 28.738 53.4023 28.4964 53.1973 28.1729C52.9967 27.8493 52.8965 27.4391 52.8965 26.9424C52.8965 26.195 53.1927 25.6208 53.7852 25.2197C54.3776 24.8187 55.2799 24.5999 56.4922 24.5635L57.7842 24.5088V24.0508C57.7842 23.4036 57.6452 22.9502 57.3672 22.6904C57.0892 22.4307 56.6973 22.3008 56.1914 22.3008C55.7995 22.3008 55.4258 22.3577 55.0703 22.4717C54.7148 22.5856 54.3776 22.7201 54.0586 22.875L53.71 22.0137C54.0472 21.8405 54.4346 21.6924 54.8721 21.5693C55.3096 21.4463 55.7699 21.3848 56.2529 21.3848ZM57.7705 25.3086L56.6289 25.3564C55.6947 25.3929 55.0361 25.5456 54.6533 25.8145C54.2705 26.0833 54.0791 26.4639 54.0791 26.9561C54.0791 27.3844 54.209 27.7012 54.4688 27.9062C54.7285 28.1113 55.0726 28.2139 55.501 28.2139C56.1663 28.2139 56.7109 28.0293 57.1348 27.6602C57.5586 27.291 57.7705 26.7373 57.7705 25.999V25.3086ZM69.3643 21.3711C70.1891 21.3711 70.8112 21.5876 71.2305 22.0205C71.6497 22.4489 71.8594 23.1393 71.8594 24.0918V29H70.7383V24.1465C70.7383 23.5404 70.6061 23.0869 70.3418 22.7861C70.082 22.4808 69.6947 22.3281 69.1797 22.3281C68.4551 22.3281 67.9287 22.5378 67.6006 22.957C67.2725 23.3763 67.1084 23.9938 67.1084 24.8096V29H65.9805V24.1465C65.9805 23.7409 65.9212 23.4036 65.8027 23.1348C65.6888 22.8659 65.5156 22.6654 65.2832 22.5332C65.0553 22.3965 64.766 22.3281 64.415 22.3281C63.9183 22.3281 63.5195 22.4307 63.2188 22.6357C62.918 22.8408 62.6992 23.1462 62.5625 23.5518C62.4303 23.9528 62.3643 24.4473 62.3643 25.0352V29H61.2295V21.5078H62.1455L62.3164 22.5674H62.3779C62.5283 22.3076 62.7174 22.0889 62.9453 21.9111C63.1732 21.7334 63.4284 21.599 63.7109 21.5078C63.9935 21.4167 64.2943 21.3711 64.6133 21.3711C65.1829 21.3711 65.6592 21.4782 66.042 21.6924C66.4294 21.902 66.7096 22.2233 66.8828 22.6562H66.9443C67.1904 22.2233 67.5277 21.902 67.9561 21.6924C68.3844 21.4782 68.8538 21.3711 69.3643 21.3711ZM80.6504 25.2402C80.6504 25.8555 80.5706 26.4046 80.4111 26.8877C80.2516 27.3708 80.0215 27.7786 79.7207 28.1113C79.4199 28.444 79.0553 28.6992 78.627 28.877C78.2031 29.0501 77.7223 29.1367 77.1846 29.1367C76.6833 29.1367 76.223 29.0501 75.8037 28.877C75.389 28.6992 75.029 28.444 74.7236 28.1113C74.4229 27.7786 74.1882 27.3708 74.0195 26.8877C73.8555 26.4046 73.7734 25.8555 73.7734 25.2402C73.7734 24.4199 73.9124 23.7227 74.1904 23.1484C74.4684 22.5697 74.8649 22.1299 75.3799 21.8291C75.8994 21.5238 76.5169 21.3711 77.2324 21.3711C77.916 21.3711 78.513 21.5238 79.0234 21.8291C79.5384 22.1344 79.9372 22.5765 80.2197 23.1553C80.5068 23.7295 80.6504 24.4245 80.6504 25.2402ZM74.9492 25.2402C74.9492 25.8418 75.029 26.3636 75.1885 26.8057C75.348 27.2477 75.5941 27.5895 75.9268 27.8311C76.2594 28.0726 76.6878 28.1934 77.2119 28.1934C77.7314 28.1934 78.1576 28.0726 78.4902 27.8311C78.8275 27.5895 79.0758 27.2477 79.2354 26.8057C79.3949 26.3636 79.4746 25.8418 79.4746 25.2402C79.4746 24.6432 79.3949 24.1283 79.2354 23.6953C79.0758 23.2578 78.8298 22.9206 78.4971 22.6836C78.1644 22.4466 77.7337 22.3281 77.2051 22.3281C76.4258 22.3281 75.8538 22.5856 75.4893 23.1006C75.1292 23.6156 74.9492 24.3288 74.9492 25.2402ZM87.459 26.9492C87.459 27.4277 87.3382 27.8311 87.0967 28.1592C86.8597 28.4827 86.5179 28.7266 86.0713 28.8906C85.6292 29.0547 85.1006 29.1367 84.4854 29.1367C83.9613 29.1367 83.5078 29.0957 83.125 29.0137C82.7422 28.9316 82.4072 28.8154 82.1201 28.665V27.6191C82.4255 27.7695 82.79 27.9062 83.2139 28.0293C83.6377 28.1523 84.0706 28.2139 84.5127 28.2139C85.1598 28.2139 85.6292 28.109 85.9209 27.8994C86.2126 27.6898 86.3584 27.4049 86.3584 27.0449C86.3584 26.8398 86.2992 26.6598 86.1807 26.5049C86.0667 26.3454 85.873 26.1927 85.5996 26.0469C85.3262 25.8965 84.9479 25.7324 84.4648 25.5547C83.9863 25.3724 83.5716 25.1924 83.2207 25.0146C82.8743 24.8324 82.6055 24.6113 82.4141 24.3516C82.2272 24.0918 82.1338 23.7546 82.1338 23.3398C82.1338 22.7064 82.389 22.221 82.8994 21.8838C83.4144 21.542 84.0889 21.3711 84.9229 21.3711C85.374 21.3711 85.7956 21.4167 86.1875 21.5078C86.584 21.5944 86.9531 21.7129 87.2949 21.8633L86.9121 22.7725C86.6022 22.6403 86.2718 22.5286 85.9209 22.4375C85.57 22.3464 85.2122 22.3008 84.8477 22.3008C84.3236 22.3008 83.9202 22.3874 83.6377 22.5605C83.3597 22.7337 83.2207 22.9707 83.2207 23.2715C83.2207 23.5039 83.2845 23.6953 83.4121 23.8457C83.5443 23.9961 83.7539 24.1374 84.041 24.2695C84.3281 24.4017 84.7064 24.5566 85.1758 24.7344C85.6452 24.9076 86.0508 25.0876 86.3926 25.2744C86.7344 25.4567 86.9964 25.68 87.1787 25.9443C87.3656 26.2041 87.459 26.5391 87.459 26.9492ZM95.3408 28.207C95.5277 28.207 95.7191 28.1911 95.915 28.1592C96.111 28.1273 96.2705 28.0885 96.3936 28.043V28.9248C96.2614 28.984 96.0768 29.0342 95.8398 29.0752C95.6074 29.1162 95.3796 29.1367 95.1562 29.1367C94.7598 29.1367 94.3997 29.0684 94.0762 28.9316C93.7526 28.7904 93.4928 28.5534 93.2969 28.2207C93.1055 27.888 93.0098 27.4277 93.0098 26.8398V22.3965H91.9434V21.8428L93.0166 21.3984L93.4678 19.7715H94.1514V21.5078H96.3457V22.3965H94.1514V26.8057C94.1514 27.2751 94.2585 27.626 94.4727 27.8584C94.6914 28.0908 94.9808 28.207 95.3408 28.207ZM101.315 21.3711C101.466 21.3711 101.623 21.3802 101.787 21.3984C101.951 21.4121 102.097 21.4326 102.225 21.46L102.081 22.5127C101.958 22.4808 101.821 22.4557 101.671 22.4375C101.521 22.4193 101.379 22.4102 101.247 22.4102C100.946 22.4102 100.661 22.4717 100.393 22.5947C100.128 22.7132 99.8958 22.8864 99.6953 23.1143C99.4948 23.3376 99.3376 23.6087 99.2236 23.9277C99.1097 24.2422 99.0527 24.5931 99.0527 24.9805V29H97.9111V21.5078H98.8545L98.9775 22.8887H99.0254C99.1803 22.6107 99.3672 22.3577 99.5859 22.1299C99.8047 21.8975 100.058 21.7129 100.345 21.5762C100.636 21.4395 100.96 21.3711 101.315 21.3711ZM106.524 21.3711C107.162 21.3711 107.709 21.5124 108.165 21.7949C108.621 22.0775 108.969 22.474 109.211 22.9844C109.452 23.4902 109.573 24.0827 109.573 24.7617V25.4658H104.398C104.412 26.3454 104.631 27.0153 105.055 27.4756C105.479 27.9359 106.076 28.166 106.846 28.166C107.32 28.166 107.739 28.1227 108.104 28.0361C108.468 27.9495 108.846 27.8219 109.238 27.6533V28.6514C108.86 28.82 108.484 28.943 108.11 29.0205C107.741 29.098 107.304 29.1367 106.798 29.1367C106.078 29.1367 105.449 28.9909 104.911 28.6992C104.378 28.403 103.963 27.9701 103.667 27.4004C103.371 26.8307 103.223 26.1335 103.223 25.3086C103.223 24.502 103.357 23.8047 103.626 23.2168C103.899 22.6243 104.282 22.1686 104.774 21.8496C105.271 21.5306 105.854 21.3711 106.524 21.3711ZM106.511 22.3008C105.905 22.3008 105.422 22.499 105.062 22.8955C104.701 23.292 104.487 23.8457 104.419 24.5566H108.384C108.379 24.11 108.309 23.7181 108.172 23.3809C108.04 23.0391 107.837 22.7747 107.563 22.5879C107.29 22.3965 106.939 22.3008 106.511 22.3008ZM112.636 21.5078V29H111.501V21.5078H112.636ZM112.082 18.7051C112.269 18.7051 112.428 18.7666 112.561 18.8896C112.697 19.0081 112.766 19.195 112.766 19.4502C112.766 19.7008 112.697 19.8877 112.561 20.0107C112.428 20.1338 112.269 20.1953 112.082 20.1953C111.886 20.1953 111.722 20.1338 111.59 20.0107C111.462 19.8877 111.398 19.7008 111.398 19.4502C111.398 19.195 111.462 19.0081 111.59 18.8896C111.722 18.7666 111.886 18.7051 112.082 18.7051ZM118.59 21.3711C119.479 21.3711 120.151 21.5898 120.606 22.0273C121.062 22.4603 121.29 23.1576 121.29 24.1191V29H120.169V24.1943C120.169 23.57 120.025 23.1029 119.738 22.793C119.456 22.4831 119.021 22.3281 118.433 22.3281C117.603 22.3281 117.02 22.5628 116.683 23.0322C116.345 23.5016 116.177 24.1829 116.177 25.0762V29H115.042V21.5078H115.958L116.129 22.5879H116.19C116.35 22.3236 116.553 22.1025 116.799 21.9248C117.045 21.7425 117.321 21.6058 117.626 21.5146C117.931 21.4189 118.253 21.3711 118.59 21.3711ZM130.088 25.2402C130.088 25.8555 130.008 26.4046 129.849 26.8877C129.689 27.3708 129.459 27.7786 129.158 28.1113C128.857 28.444 128.493 28.6992 128.064 28.877C127.641 29.0501 127.16 29.1367 126.622 29.1367C126.121 29.1367 125.66 29.0501 125.241 28.877C124.826 28.6992 124.466 28.444 124.161 28.1113C123.86 27.7786 123.626 27.3708 123.457 26.8877C123.293 26.4046 123.211 25.8555 123.211 25.2402C123.211 24.4199 123.35 23.7227 123.628 23.1484C123.906 22.5697 124.302 22.1299 124.817 21.8291C125.337 21.5238 125.954 21.3711 126.67 21.3711C127.354 21.3711 127.951 21.5238 128.461 21.8291C128.976 22.1344 129.375 22.5765 129.657 23.1553C129.944 23.7295 130.088 24.4245 130.088 25.2402ZM124.387 25.2402C124.387 25.8418 124.466 26.3636 124.626 26.8057C124.785 27.2477 125.032 27.5895 125.364 27.8311C125.697 28.0726 126.125 28.1934 126.649 28.1934C127.169 28.1934 127.595 28.0726 127.928 27.8311C128.265 27.5895 128.513 27.2477 128.673 26.8057C128.832 26.3636 128.912 25.8418 128.912 25.2402C128.912 24.6432 128.832 24.1283 128.673 23.6953C128.513 23.2578 128.267 22.9206 127.935 22.6836C127.602 22.4466 127.171 22.3281 126.643 22.3281C125.863 22.3281 125.291 22.5856 124.927 23.1006C124.567 23.6156 124.387 24.3288 124.387 25.2402ZM136.896 26.9492C136.896 27.4277 136.776 27.8311 136.534 28.1592C136.297 28.4827 135.955 28.7266 135.509 28.8906C135.067 29.0547 134.538 29.1367 133.923 29.1367C133.399 29.1367 132.945 29.0957 132.562 29.0137C132.18 28.9316 131.845 28.8154 131.558 28.665V27.6191C131.863 27.7695 132.228 27.9062 132.651 28.0293C133.075 28.1523 133.508 28.2139 133.95 28.2139C134.597 28.2139 135.067 28.109 135.358 27.8994C135.65 27.6898 135.796 27.4049 135.796 27.0449C135.796 26.8398 135.737 26.6598 135.618 26.5049C135.504 26.3454 135.311 26.1927 135.037 26.0469C134.764 25.8965 134.385 25.7324 133.902 25.5547C133.424 25.3724 133.009 25.1924 132.658 25.0146C132.312 24.8324 132.043 24.6113 131.852 24.3516C131.665 24.0918 131.571 23.7546 131.571 23.3398C131.571 22.7064 131.826 22.221 132.337 21.8838C132.852 21.542 133.526 21.3711 134.36 21.3711C134.812 21.3711 135.233 21.4167 135.625 21.5078C136.021 21.5944 136.391 21.7129 136.732 21.8633L136.35 22.7725C136.04 22.6403 135.709 22.5286 135.358 22.4375C135.007 22.3464 134.65 22.3008 134.285 22.3008C133.761 22.3008 133.358 22.3874 133.075 22.5605C132.797 22.7337 132.658 22.9707 132.658 23.2715C132.658 23.5039 132.722 23.6953 132.85 23.8457C132.982 23.9961 133.191 24.1374 133.479 24.2695C133.766 24.4017 134.144 24.5566 134.613 24.7344C135.083 24.9076 135.488 25.0876 135.83 25.2744C136.172 25.4567 136.434 25.68 136.616 25.9443C136.803 26.2041 136.896 26.5391 136.896 26.9492ZM145.407 21.2139C146.114 21.2139 146.722 21.3506 147.232 21.624C147.743 21.8929 148.137 22.2848 148.415 22.7998C148.693 23.3148 148.832 23.9437 148.832 24.6865V25.6982H143.903C143.926 26.2861 144.102 26.7487 144.43 27.0859C144.762 27.4186 145.223 27.585 145.811 27.585C146.298 27.585 146.745 27.5348 147.15 27.4346C147.556 27.3343 147.973 27.1839 148.401 26.9834V28.5967C148.023 28.7835 147.627 28.9202 147.212 29.0068C146.802 29.0934 146.303 29.1367 145.715 29.1367C144.949 29.1367 144.27 28.9954 143.678 28.7129C143.09 28.4303 142.627 27.9997 142.29 27.4209C141.957 26.8421 141.791 26.113 141.791 25.2334C141.791 24.3402 141.941 23.5973 142.242 23.0049C142.548 22.4079 142.971 21.9613 143.514 21.665C144.056 21.3643 144.687 21.2139 145.407 21.2139ZM145.421 22.6973C145.015 22.6973 144.678 22.8271 144.409 23.0869C144.145 23.3467 143.992 23.7546 143.951 24.3105H146.877C146.872 24.0007 146.815 23.7249 146.706 23.4834C146.601 23.2419 146.442 23.0505 146.228 22.9092C146.018 22.7679 145.749 22.6973 145.421 22.6973ZM152.093 25.0967L149.632 21.3574H151.997L153.48 23.791L154.978 21.3574H157.343L154.854 25.0967L157.459 29H155.087L153.48 26.3818L151.867 29H149.502L152.093 25.0967ZM161.725 29.1367C160.968 29.1367 160.323 29 159.79 28.7266C159.257 28.4486 158.851 28.0202 158.573 27.4414C158.295 26.8626 158.156 26.1221 158.156 25.2197C158.156 24.2855 158.313 23.5244 158.628 22.9365C158.947 22.3441 159.387 21.9089 159.947 21.6309C160.512 21.3529 161.166 21.2139 161.909 21.2139C162.438 21.2139 162.894 21.2663 163.276 21.3711C163.664 21.4714 164.001 21.5921 164.288 21.7334L163.673 23.3467C163.345 23.2145 163.039 23.1074 162.757 23.0254C162.474 22.9388 162.192 22.8955 161.909 22.8955C161.545 22.8955 161.242 22.9821 161 23.1553C160.758 23.3239 160.578 23.5791 160.46 23.9209C160.341 24.2627 160.282 24.6911 160.282 25.2061C160.282 25.7119 160.346 26.1312 160.474 26.4639C160.601 26.7965 160.786 27.0449 161.027 27.209C161.269 27.3685 161.563 27.4482 161.909 27.4482C162.342 27.4482 162.727 27.3913 163.064 27.2773C163.402 27.1589 163.73 26.9948 164.049 26.7852V28.5693C163.73 28.7699 163.395 28.9134 163.044 29C162.698 29.0911 162.258 29.1367 161.725 29.1367ZM167.911 29H165.826V18.3633H167.911V29ZM177.119 21.3574V29H175.52L175.239 28.0225H175.13C174.966 28.2822 174.761 28.4941 174.515 28.6582C174.269 28.8223 173.997 28.943 173.701 29.0205C173.405 29.098 173.097 29.1367 172.778 29.1367C172.231 29.1367 171.755 29.041 171.35 28.8496C170.944 28.6536 170.627 28.3506 170.399 27.9404C170.176 27.5303 170.064 26.9971 170.064 26.3408V21.3574H172.149V25.8213C172.149 26.3682 172.247 26.7806 172.443 27.0586C172.639 27.3366 172.951 27.4756 173.38 27.4756C173.804 27.4756 174.136 27.3799 174.378 27.1885C174.619 26.9925 174.788 26.7077 174.884 26.334C174.984 25.9557 175.034 25.4954 175.034 24.9531V21.3574H177.119ZM184.639 26.7305C184.639 27.25 184.516 27.6898 184.27 28.0498C184.028 28.4053 183.666 28.6764 183.183 28.8633C182.7 29.0456 182.098 29.1367 181.378 29.1367C180.845 29.1367 180.387 29.1025 180.004 29.0342C179.626 28.9658 179.243 28.8519 178.855 28.6924V26.9697C179.27 27.1566 179.715 27.3115 180.188 27.4346C180.667 27.5531 181.086 27.6123 181.446 27.6123C181.852 27.6123 182.141 27.5531 182.314 27.4346C182.492 27.3115 182.581 27.152 182.581 26.9561C182.581 26.8285 182.545 26.7145 182.472 26.6143C182.403 26.5094 182.253 26.3932 182.021 26.2656C181.788 26.1335 181.424 25.9626 180.927 25.7529C180.448 25.5524 180.054 25.3496 179.744 25.1445C179.439 24.9395 179.211 24.6979 179.061 24.4199C178.915 24.1374 178.842 23.7796 178.842 23.3467C178.842 22.6403 179.115 22.1094 179.662 21.7539C180.214 21.3939 180.95 21.2139 181.87 21.2139C182.344 21.2139 182.795 21.2617 183.224 21.3574C183.657 21.4531 184.101 21.6058 184.557 21.8154L183.928 23.3193C183.549 23.1553 183.192 23.0208 182.854 22.916C182.522 22.8112 182.182 22.7588 181.836 22.7588C181.531 22.7588 181.3 22.7998 181.146 22.8818C180.991 22.9639 180.913 23.0892 180.913 23.2578C180.913 23.3809 180.952 23.4902 181.029 23.5859C181.111 23.6816 181.266 23.7887 181.494 23.9072C181.727 24.0212 182.066 24.1693 182.513 24.3516C182.946 24.5293 183.322 24.7161 183.641 24.9121C183.96 25.1035 184.206 25.3428 184.379 25.6299C184.552 25.9124 184.639 26.2793 184.639 26.7305ZM188.351 21.3574V29H186.266V21.3574H188.351ZM187.312 18.3633C187.621 18.3633 187.888 18.4362 188.111 18.582C188.335 18.7233 188.446 18.9899 188.446 19.3818C188.446 19.7692 188.335 20.0381 188.111 20.1885C187.888 20.3343 187.621 20.4072 187.312 20.4072C186.997 20.4072 186.728 20.3343 186.505 20.1885C186.286 20.0381 186.177 19.7692 186.177 19.3818C186.177 18.9899 186.286 18.7233 186.505 18.582C186.728 18.4362 186.997 18.3633 187.312 18.3633ZM192.363 29L189.451 21.3574H191.632L193.108 25.7119C193.19 25.9671 193.254 26.236 193.3 26.5186C193.35 26.8011 193.384 27.054 193.402 27.2773H193.457C193.471 27.0358 193.503 26.7783 193.553 26.5049C193.607 26.2314 193.678 25.9671 193.765 25.7119L195.234 21.3574H197.415L194.503 29H192.363ZM205.461 25.165C205.461 25.8031 205.374 26.3682 205.201 26.8604C205.033 27.3525 204.784 27.7695 204.456 28.1113C204.132 28.4486 203.741 28.7038 203.28 28.877C202.825 29.0501 202.31 29.1367 201.735 29.1367C201.198 29.1367 200.703 29.0501 200.252 28.877C199.805 28.7038 199.416 28.4486 199.083 28.1113C198.755 27.7695 198.5 27.3525 198.317 26.8604C198.14 26.3682 198.051 25.8031 198.051 25.165C198.051 24.3174 198.201 23.5996 198.502 23.0117C198.803 22.4238 199.231 21.9772 199.787 21.6719C200.343 21.3665 201.006 21.2139 201.776 21.2139C202.492 21.2139 203.125 21.3665 203.677 21.6719C204.233 21.9772 204.668 22.4238 204.982 23.0117C205.301 23.5996 205.461 24.3174 205.461 25.165ZM200.177 25.165C200.177 25.6663 200.231 26.0879 200.341 26.4297C200.45 26.7715 200.621 27.029 200.854 27.2021C201.086 27.3753 201.389 27.4619 201.763 27.4619C202.132 27.4619 202.43 27.3753 202.658 27.2021C202.891 27.029 203.059 26.7715 203.164 26.4297C203.273 26.0879 203.328 25.6663 203.328 25.165C203.328 24.6592 203.273 24.2399 203.164 23.9072C203.059 23.57 202.891 23.3171 202.658 23.1484C202.426 22.9798 202.123 22.8955 201.749 22.8955C201.198 22.8955 200.797 23.0846 200.546 23.4629C200.3 23.8411 200.177 24.4085 200.177 25.165ZM212.516 26.7305C212.516 27.25 212.393 27.6898 212.146 28.0498C211.905 28.4053 211.543 28.6764 211.06 28.8633C210.576 29.0456 209.975 29.1367 209.255 29.1367C208.722 29.1367 208.264 29.1025 207.881 29.0342C207.503 28.9658 207.12 28.8519 206.732 28.6924V26.9697C207.147 27.1566 207.591 27.3115 208.065 27.4346C208.544 27.5531 208.963 27.6123 209.323 27.6123C209.729 27.6123 210.018 27.5531 210.191 27.4346C210.369 27.3115 210.458 27.152 210.458 26.9561C210.458 26.8285 210.422 26.7145 210.349 26.6143C210.28 26.5094 210.13 26.3932 209.897 26.2656C209.665 26.1335 209.3 25.9626 208.804 25.7529C208.325 25.5524 207.931 25.3496 207.621 25.1445C207.316 24.9395 207.088 24.6979 206.938 24.4199C206.792 24.1374 206.719 23.7796 206.719 23.3467C206.719 22.6403 206.992 22.1094 207.539 21.7539C208.09 21.3939 208.826 21.2139 209.747 21.2139C210.221 21.2139 210.672 21.2617 211.101 21.3574C211.534 21.4531 211.978 21.6058 212.434 21.8154L211.805 23.3193C211.426 23.1553 211.069 23.0208 210.731 22.916C210.399 22.8112 210.059 22.7588 209.713 22.7588C209.408 22.7588 209.177 22.7998 209.022 22.8818C208.868 22.9639 208.79 23.0892 208.79 23.2578C208.79 23.3809 208.829 23.4902 208.906 23.5859C208.988 23.6816 209.143 23.7887 209.371 23.9072C209.604 24.0212 209.943 24.1693 210.39 24.3516C210.823 24.5293 211.199 24.7161 211.518 24.9121C211.837 25.1035 212.083 25.3428 212.256 25.6299C212.429 25.9124 212.516 26.2793 212.516 26.7305ZM220.931 21.2139C221.637 21.2139 222.245 21.3506 222.756 21.624C223.266 21.8929 223.66 22.2848 223.938 22.7998C224.216 23.3148 224.355 23.9437 224.355 24.6865V25.6982H219.427C219.45 26.2861 219.625 26.7487 219.953 27.0859C220.286 27.4186 220.746 27.585 221.334 27.585C221.822 27.585 222.268 27.5348 222.674 27.4346C223.079 27.3343 223.496 27.1839 223.925 26.9834V28.5967C223.547 28.7835 223.15 28.9202 222.735 29.0068C222.325 29.0934 221.826 29.1367 221.238 29.1367C220.473 29.1367 219.794 28.9954 219.201 28.7129C218.613 28.4303 218.151 27.9997 217.813 27.4209C217.481 26.8421 217.314 26.113 217.314 25.2334C217.314 24.3402 217.465 23.5973 217.766 23.0049C218.071 22.4079 218.495 21.9613 219.037 21.665C219.579 21.3643 220.211 21.2139 220.931 21.2139ZM220.944 22.6973C220.539 22.6973 220.201 22.8271 219.933 23.0869C219.668 23.3467 219.516 23.7546 219.475 24.3105H222.4C222.396 24.0007 222.339 23.7249 222.229 23.4834C222.125 23.2419 221.965 23.0505 221.751 22.9092C221.541 22.7679 221.272 22.6973 220.944 22.6973ZM236.701 21.3574V29H235.102L234.821 28.0225H234.712C234.548 28.2822 234.343 28.4941 234.097 28.6582C233.851 28.8223 233.579 28.943 233.283 29.0205C232.987 29.098 232.679 29.1367 232.36 29.1367C231.813 29.1367 231.337 29.041 230.932 28.8496C230.526 28.6536 230.209 28.3506 229.981 27.9404C229.758 27.5303 229.646 26.9971 229.646 26.3408V21.3574H231.731V25.8213C231.731 26.3682 231.829 26.7806 232.025 27.0586C232.221 27.3366 232.534 27.4756 232.962 27.4756C233.386 27.4756 233.718 27.3799 233.96 27.1885C234.201 26.9925 234.37 26.7077 234.466 26.334C234.566 25.9557 234.616 25.4954 234.616 24.9531V21.3574H236.701ZM235.888 18.2744V18.418C235.756 18.5456 235.582 18.7028 235.368 18.8896C235.154 19.0765 234.924 19.2725 234.678 19.4775C234.432 19.6781 234.19 19.8717 233.953 20.0586C233.716 20.2409 233.509 20.3936 233.331 20.5166H231.943V20.332C232.094 20.1589 232.267 19.9538 232.463 19.7168C232.663 19.4753 232.862 19.2269 233.058 18.9717C233.254 18.7165 233.418 18.484 233.55 18.2744H235.888ZM243.229 21.2139C244.045 21.2139 244.701 21.4372 245.198 21.8838C245.695 22.3258 245.943 23.0368 245.943 24.0166V29H243.858V24.5361C243.858 23.9893 243.758 23.5768 243.558 23.2988C243.362 23.0208 243.052 22.8818 242.628 22.8818C241.99 22.8818 241.555 23.0983 241.322 23.5312C241.09 23.9642 240.974 24.5885 240.974 25.4043V29H238.889V21.3574H240.481L240.762 22.335H240.878C241.042 22.0706 241.245 21.8564 241.486 21.6924C241.732 21.5283 242.004 21.4076 242.3 21.3301C242.601 21.2526 242.91 21.2139 243.229 21.2139ZM250.175 21.3574V29H248.09V21.3574H250.175ZM249.136 18.3633C249.446 18.3633 249.712 18.4362 249.936 18.582C250.159 18.7233 250.271 18.9899 250.271 19.3818C250.271 19.7692 250.159 20.0381 249.936 20.1885C249.712 20.3343 249.446 20.4072 249.136 20.4072C248.821 20.4072 248.552 20.3343 248.329 20.1885C248.11 20.0381 248.001 19.7692 248.001 19.3818C248.001 18.9899 248.11 18.7233 248.329 18.582C248.552 18.4362 248.821 18.3633 249.136 18.3633ZM255.473 29.1367C254.716 29.1367 254.071 29 253.538 28.7266C253.005 28.4486 252.599 28.0202 252.321 27.4414C252.043 26.8626 251.904 26.1221 251.904 25.2197C251.904 24.2855 252.062 23.5244 252.376 22.9365C252.695 22.3441 253.135 21.9089 253.695 21.6309C254.26 21.3529 254.914 21.2139 255.657 21.2139C256.186 21.2139 256.642 21.2663 257.024 21.3711C257.412 21.4714 257.749 21.5921 258.036 21.7334L257.421 23.3467C257.093 23.2145 256.787 23.1074 256.505 23.0254C256.222 22.9388 255.94 22.8955 255.657 22.8955C255.293 22.8955 254.99 22.9821 254.748 23.1553C254.507 23.3239 254.326 23.5791 254.208 23.9209C254.09 24.2627 254.03 24.6911 254.03 25.2061C254.03 25.7119 254.094 26.1312 254.222 26.4639C254.349 26.7965 254.534 27.0449 254.775 27.209C255.017 27.3685 255.311 27.4482 255.657 27.4482C256.09 27.4482 256.475 27.3913 256.812 27.2773C257.15 27.1589 257.478 26.9948 257.797 26.7852V28.5693C257.478 28.7699 257.143 28.9134 256.792 29C256.446 29.0911 256.006 29.1367 255.473 29.1367ZM266.52 25.165C266.52 25.8031 266.433 26.3682 266.26 26.8604C266.091 27.3525 265.843 27.7695 265.515 28.1113C265.191 28.4486 264.799 28.7038 264.339 28.877C263.883 29.0501 263.368 29.1367 262.794 29.1367C262.256 29.1367 261.762 29.0501 261.311 28.877C260.864 28.7038 260.474 28.4486 260.142 28.1113C259.813 27.7695 259.558 27.3525 259.376 26.8604C259.198 26.3682 259.109 25.8031 259.109 25.165C259.109 24.3174 259.26 23.5996 259.561 23.0117C259.861 22.4238 260.29 21.9772 260.846 21.6719C261.402 21.3665 262.065 21.2139 262.835 21.2139C263.55 21.2139 264.184 21.3665 264.735 21.6719C265.291 21.9772 265.727 22.4238 266.041 23.0117C266.36 23.5996 266.52 24.3174 266.52 25.165ZM261.235 25.165C261.235 25.6663 261.29 26.0879 261.399 26.4297C261.509 26.7715 261.68 27.029 261.912 27.2021C262.145 27.3753 262.448 27.4619 262.821 27.4619C263.19 27.4619 263.489 27.3753 263.717 27.2021C263.949 27.029 264.118 26.7715 264.223 26.4297C264.332 26.0879 264.387 25.6663 264.387 25.165C264.387 24.6592 264.332 24.2399 264.223 23.9072C264.118 23.57 263.949 23.3171 263.717 23.1484C263.484 22.9798 263.181 22.8955 262.808 22.8955C262.256 22.8955 261.855 23.0846 261.604 23.4629C261.358 23.8411 261.235 24.4085 261.235 25.165ZM273.574 26.7305C273.574 27.25 273.451 27.6898 273.205 28.0498C272.964 28.4053 272.601 28.6764 272.118 28.8633C271.635 29.0456 271.034 29.1367 270.313 29.1367C269.78 29.1367 269.322 29.1025 268.939 29.0342C268.561 28.9658 268.178 28.8519 267.791 28.6924V26.9697C268.206 27.1566 268.65 27.3115 269.124 27.4346C269.603 27.5531 270.022 27.6123 270.382 27.6123C270.787 27.6123 271.077 27.5531 271.25 27.4346C271.428 27.3115 271.517 27.152 271.517 26.9561C271.517 26.8285 271.48 26.7145 271.407 26.6143C271.339 26.5094 271.188 26.3932 270.956 26.2656C270.724 26.1335 270.359 25.9626 269.862 25.7529C269.384 25.5524 268.99 25.3496 268.68 25.1445C268.374 24.9395 268.146 24.6979 267.996 24.4199C267.85 24.1374 267.777 23.7796 267.777 23.3467C267.777 22.6403 268.051 22.1094 268.598 21.7539C269.149 21.3939 269.885 21.2139 270.806 21.2139C271.28 21.2139 271.731 21.2617 272.159 21.3574C272.592 21.4531 273.036 21.6058 273.492 21.8154L272.863 23.3193C272.485 23.1553 272.127 23.0208 271.79 22.916C271.457 22.8112 271.118 22.7588 270.771 22.7588C270.466 22.7588 270.236 22.7998 270.081 22.8818C269.926 22.9639 269.849 23.0892 269.849 23.2578C269.849 23.3809 269.887 23.4902 269.965 23.5859C270.047 23.6816 270.202 23.7887 270.43 23.9072C270.662 24.0212 271.002 24.1693 271.448 24.3516C271.881 24.5293 272.257 24.7161 272.576 24.9121C272.895 25.1035 273.141 25.3428 273.314 25.6299C273.488 25.9124 273.574 26.2793 273.574 26.7305ZM283.09 21.2139C283.951 21.2139 284.646 21.5488 285.175 22.2188C285.708 22.8887 285.975 23.8708 285.975 25.165C285.975 26.0309 285.849 26.7601 285.599 27.3525C285.348 27.9404 285.002 28.3848 284.56 28.6855C284.118 28.9863 283.609 29.1367 283.035 29.1367C282.666 29.1367 282.349 29.0911 282.085 29C281.821 28.9043 281.595 28.7835 281.408 28.6377C281.221 28.4873 281.06 28.3278 280.923 28.1592H280.813C280.85 28.3415 280.877 28.5283 280.896 28.7197C280.914 28.9111 280.923 29.098 280.923 29.2803V32.3633H278.838V21.3574H280.533L280.827 22.3486H280.923C281.06 22.1436 281.226 21.9544 281.422 21.7812C281.618 21.6081 281.853 21.4714 282.126 21.3711C282.404 21.2663 282.725 21.2139 283.09 21.2139ZM282.42 22.8818C282.055 22.8818 281.766 22.957 281.552 23.1074C281.338 23.2578 281.18 23.4834 281.08 23.7842C280.984 24.085 280.932 24.4655 280.923 24.9258V25.1514C280.923 25.6436 280.968 26.0605 281.06 26.4023C281.155 26.7441 281.312 27.0039 281.531 27.1816C281.755 27.3594 282.06 27.4482 282.447 27.4482C282.766 27.4482 283.028 27.3594 283.233 27.1816C283.438 27.0039 283.591 26.7441 283.691 26.4023C283.796 26.056 283.849 25.6344 283.849 25.1377C283.849 24.3903 283.732 23.8275 283.5 23.4492C283.268 23.071 282.908 22.8818 282.42 22.8818ZM290.828 21.2002C291.854 21.2002 292.64 21.4235 293.187 21.8701C293.733 22.3167 294.007 22.9958 294.007 23.9072V29H292.551L292.147 27.9609H292.093C291.874 28.2344 291.651 28.4577 291.423 28.6309C291.195 28.804 290.933 28.9316 290.637 29.0137C290.34 29.0957 289.98 29.1367 289.557 29.1367C289.105 29.1367 288.7 29.0501 288.34 28.877C287.984 28.7038 287.704 28.4395 287.499 28.084C287.294 27.724 287.191 27.2682 287.191 26.7168C287.191 25.9056 287.476 25.3086 288.046 24.9258C288.616 24.5384 289.47 24.3242 290.609 24.2832L291.936 24.2422V23.9072C291.936 23.5062 291.831 23.2122 291.621 23.0254C291.411 22.8385 291.12 22.7451 290.746 22.7451C290.377 22.7451 290.015 22.7975 289.659 22.9023C289.304 23.0072 288.948 23.1393 288.593 23.2988L287.902 21.8906C288.308 21.6764 288.761 21.5078 289.263 21.3848C289.769 21.2617 290.29 21.2002 290.828 21.2002ZM291.936 25.459L291.129 25.4863C290.454 25.5046 289.985 25.6253 289.721 25.8486C289.461 26.0719 289.331 26.3659 289.331 26.7305C289.331 27.0495 289.424 27.2773 289.611 27.4141C289.798 27.5462 290.042 27.6123 290.343 27.6123C290.789 27.6123 291.165 27.4801 291.471 27.2158C291.781 26.9515 291.936 26.5755 291.936 26.0879V25.459ZM300.426 21.2139C300.531 21.2139 300.651 21.2207 300.788 21.2344C300.929 21.2435 301.043 21.2572 301.13 21.2754L300.973 23.2305C300.904 23.2077 300.806 23.1917 300.679 23.1826C300.556 23.1689 300.449 23.1621 300.357 23.1621C300.089 23.1621 299.826 23.1963 299.571 23.2646C299.321 23.333 299.095 23.4447 298.895 23.5996C298.694 23.75 298.535 23.9505 298.416 24.2012C298.302 24.4473 298.245 24.7503 298.245 25.1104V29H296.16V21.3574H297.739L298.047 22.6426H298.149C298.3 22.3828 298.487 22.1458 298.71 21.9316C298.938 21.7129 299.195 21.5397 299.482 21.4121C299.774 21.2799 300.089 21.2139 300.426 21.2139ZM305.648 21.2002C306.674 21.2002 307.46 21.4235 308.007 21.8701C308.554 22.3167 308.827 22.9958 308.827 23.9072V29H307.371L306.968 27.9609H306.913C306.694 28.2344 306.471 28.4577 306.243 28.6309C306.015 28.804 305.753 28.9316 305.457 29.0137C305.161 29.0957 304.801 29.1367 304.377 29.1367C303.926 29.1367 303.52 29.0501 303.16 28.877C302.805 28.7038 302.524 28.4395 302.319 28.084C302.114 27.724 302.012 27.2682 302.012 26.7168C302.012 25.9056 302.297 25.3086 302.866 24.9258C303.436 24.5384 304.29 24.3242 305.43 24.2832L306.756 24.2422V23.9072C306.756 23.5062 306.651 23.2122 306.441 23.0254C306.232 22.8385 305.94 22.7451 305.566 22.7451C305.197 22.7451 304.835 22.7975 304.479 22.9023C304.124 23.0072 303.769 23.1393 303.413 23.2988L302.723 21.8906C303.128 21.6764 303.582 21.5078 304.083 21.3848C304.589 21.2617 305.111 21.2002 305.648 21.2002ZM306.756 25.459L305.949 25.4863C305.275 25.5046 304.805 25.6253 304.541 25.8486C304.281 26.0719 304.151 26.3659 304.151 26.7305C304.151 27.0495 304.245 27.2773 304.432 27.4141C304.618 27.5462 304.862 27.6123 305.163 27.6123C305.61 27.6123 305.986 27.4801 306.291 27.2158C306.601 26.9515 306.756 26.5755 306.756 26.0879V25.459ZM316.436 29L313.523 21.3574H315.704L317.181 25.7119C317.263 25.9671 317.326 26.236 317.372 26.5186C317.422 26.8011 317.456 27.054 317.475 27.2773H317.529C317.543 27.0358 317.575 26.7783 317.625 26.5049C317.68 26.2314 317.75 25.9671 317.837 25.7119L319.307 21.3574H321.487L318.575 29H316.436ZM329.533 25.165C329.533 25.8031 329.447 26.3682 329.273 26.8604C329.105 27.3525 328.856 27.7695 328.528 28.1113C328.205 28.4486 327.813 28.7038 327.353 28.877C326.897 29.0501 326.382 29.1367 325.808 29.1367C325.27 29.1367 324.775 29.0501 324.324 28.877C323.878 28.7038 323.488 28.4486 323.155 28.1113C322.827 27.7695 322.572 27.3525 322.39 26.8604C322.212 26.3682 322.123 25.8031 322.123 25.165C322.123 24.3174 322.273 23.5996 322.574 23.0117C322.875 22.4238 323.303 21.9772 323.859 21.6719C324.415 21.3665 325.078 21.2139 325.849 21.2139C326.564 21.2139 327.198 21.3665 327.749 21.6719C328.305 21.9772 328.74 22.4238 329.055 23.0117C329.374 23.5996 329.533 24.3174 329.533 25.165ZM324.249 25.165C324.249 25.6663 324.304 26.0879 324.413 26.4297C324.522 26.7715 324.693 27.029 324.926 27.2021C325.158 27.3753 325.461 27.4619 325.835 27.4619C326.204 27.4619 326.503 27.3753 326.73 27.2021C326.963 27.029 327.132 26.7715 327.236 26.4297C327.346 26.0879 327.4 25.6663 327.4 25.165C327.4 24.6592 327.346 24.2399 327.236 23.9072C327.132 23.57 326.963 23.3171 326.73 23.1484C326.498 22.9798 326.195 22.8955 325.821 22.8955C325.27 22.8955 324.869 23.0846 324.618 23.4629C324.372 23.8411 324.249 24.4085 324.249 25.165ZM334.359 29.1367C333.603 29.1367 332.958 29 332.425 28.7266C331.892 28.4486 331.486 28.0202 331.208 27.4414C330.93 26.8626 330.791 26.1221 330.791 25.2197C330.791 24.2855 330.948 23.5244 331.263 22.9365C331.582 22.3441 332.021 21.9089 332.582 21.6309C333.147 21.3529 333.801 21.2139 334.544 21.2139C335.073 21.2139 335.528 21.2663 335.911 21.3711C336.299 21.4714 336.636 21.5921 336.923 21.7334L336.308 23.3467C335.979 23.2145 335.674 23.1074 335.392 23.0254C335.109 22.9388 334.826 22.8955 334.544 22.8955C334.179 22.8955 333.876 22.9821 333.635 23.1553C333.393 23.3239 333.213 23.5791 333.095 23.9209C332.976 24.2627 332.917 24.6911 332.917 25.2061C332.917 25.7119 332.981 26.1312 333.108 26.4639C333.236 26.7965 333.421 27.0449 333.662 27.209C333.904 27.3685 334.198 27.4482 334.544 27.4482C334.977 27.4482 335.362 27.3913 335.699 27.2773C336.036 27.1589 336.365 26.9948 336.684 26.7852V28.5693C336.365 28.7699 336.03 28.9134 335.679 29C335.332 29.0911 334.893 29.1367 334.359 29.1367ZM341.612 21.2139C342.319 21.2139 342.927 21.3506 343.438 21.624C343.948 21.8929 344.342 22.2848 344.62 22.7998C344.898 23.3148 345.037 23.9437 345.037 24.6865V25.6982H340.108C340.131 26.2861 340.307 26.7487 340.635 27.0859C340.967 27.4186 341.428 27.585 342.016 27.585C342.503 27.585 342.95 27.5348 343.355 27.4346C343.761 27.3343 344.178 27.1839 344.606 26.9834V28.5967C344.228 28.7835 343.832 28.9202 343.417 29.0068C343.007 29.0934 342.508 29.1367 341.92 29.1367C341.154 29.1367 340.475 28.9954 339.883 28.7129C339.295 28.4303 338.832 27.9997 338.495 27.4209C338.162 26.8421 337.996 26.113 337.996 25.2334C337.996 24.3402 338.146 23.5973 338.447 23.0049C338.753 22.4079 339.176 21.9613 339.719 21.665C340.261 21.3643 340.892 21.2139 341.612 21.2139ZM341.626 22.6973C341.22 22.6973 340.883 22.8271 340.614 23.0869C340.35 23.3467 340.197 23.7546 340.156 24.3105H343.082C343.077 24.0007 343.021 23.7249 342.911 23.4834C342.806 23.2419 342.647 23.0505 342.433 22.9092C342.223 22.7679 341.954 22.6973 341.626 22.6973ZM342.74 18.2744C342.872 18.484 343.043 18.7165 343.253 18.9717C343.467 19.2269 343.686 19.4753 343.909 19.7168C344.132 19.9583 344.326 20.1634 344.49 20.332V20.5166H343.109C342.863 20.3708 342.594 20.1976 342.303 19.9971C342.016 19.792 341.751 19.5641 341.51 19.3135C341.264 19.5641 341.002 19.7897 340.724 19.9902C340.446 20.1862 340.186 20.3617 339.944 20.5166H338.557V20.332C338.73 20.1589 338.928 19.9538 339.151 19.7168C339.375 19.4753 339.591 19.2269 339.801 18.9717C340.01 18.7165 340.179 18.484 340.307 18.2744H342.74ZM346.438 28.0225C346.438 27.5941 346.555 27.2933 346.787 27.1201C347.024 26.9469 347.309 26.8604 347.642 26.8604C347.965 26.8604 348.243 26.9469 348.476 27.1201C348.713 27.2933 348.831 27.5941 348.831 28.0225C348.831 28.4326 348.713 28.7288 348.476 28.9111C348.243 29.0934 347.965 29.1846 347.642 29.1846C347.309 29.1846 347.024 29.0934 346.787 28.9111C346.555 28.7288 346.438 28.4326 346.438 28.0225ZM8.36719 57V47.0059H9.5293V57H8.36719ZM15.6543 49.3711C16.543 49.3711 17.2152 49.5898 17.6709 50.0273C18.1266 50.4603 18.3545 51.1576 18.3545 52.1191V57H17.2334V52.1943C17.2334 51.57 17.0898 51.1029 16.8027 50.793C16.5202 50.4831 16.085 50.3281 15.4971 50.3281C14.6676 50.3281 14.0843 50.5628 13.7471 51.0322C13.4098 51.5016 13.2412 52.1829 13.2412 53.0762V57H12.1064V49.5078H13.0225L13.1934 50.5879H13.2549C13.4144 50.3236 13.6172 50.1025 13.8633 49.9248C14.1094 49.7425 14.3851 49.6058 14.6904 49.5146C14.9958 49.4189 15.3171 49.3711 15.6543 49.3711ZM22.3398 57L19.4961 49.5078H20.7129L22.3604 54.04C22.4743 54.3499 22.5905 54.6917 22.709 55.0654C22.8275 55.4391 22.9095 55.7399 22.9551 55.9678H23.0029C23.0576 55.7399 23.1488 55.4391 23.2764 55.0654C23.404 54.6872 23.5202 54.3454 23.625 54.04L25.2725 49.5078H26.4893L23.6387 57H22.3398ZM28.8271 49.5078V57H27.6924V49.5078H28.8271ZM28.2734 46.7051C28.4603 46.7051 28.6198 46.7666 28.752 46.8896C28.8887 47.0081 28.957 47.195 28.957 47.4502C28.957 47.7008 28.8887 47.8877 28.752 48.0107C28.6198 48.1338 28.4603 48.1953 28.2734 48.1953C28.0775 48.1953 27.9134 48.1338 27.7812 48.0107C27.6536 47.8877 27.5898 47.7008 27.5898 47.4502C27.5898 47.195 27.6536 47.0081 27.7812 46.8896C27.9134 46.7666 28.0775 46.7051 28.2734 46.7051ZM36.0801 54.9492C36.0801 55.4277 35.9593 55.8311 35.7178 56.1592C35.4808 56.4827 35.139 56.7266 34.6924 56.8906C34.2503 57.0547 33.7217 57.1367 33.1064 57.1367C32.5824 57.1367 32.1289 57.0957 31.7461 57.0137C31.3633 56.9316 31.0283 56.8154 30.7412 56.665V55.6191C31.0465 55.7695 31.4111 55.9062 31.835 56.0293C32.2588 56.1523 32.6917 56.2139 33.1338 56.2139C33.7809 56.2139 34.2503 56.109 34.542 55.8994C34.8337 55.6898 34.9795 55.4049 34.9795 55.0449C34.9795 54.8398 34.9202 54.6598 34.8018 54.5049C34.6878 54.3454 34.4941 54.1927 34.2207 54.0469C33.9473 53.8965 33.569 53.7324 33.0859 53.5547C32.6074 53.3724 32.1927 53.1924 31.8418 53.0146C31.4954 52.8324 31.2266 52.6113 31.0352 52.3516C30.8483 52.0918 30.7549 51.7546 30.7549 51.3398C30.7549 50.7064 31.0101 50.221 31.5205 49.8838C32.0355 49.542 32.71 49.3711 33.5439 49.3711C33.9951 49.3711 34.4167 49.4167 34.8086 49.5078C35.2051 49.5944 35.5742 49.7129 35.916 49.8633L35.5332 50.7725C35.2233 50.6403 34.8929 50.5286 34.542 50.4375C34.1911 50.3464 33.8333 50.3008 33.4688 50.3008C32.9447 50.3008 32.5413 50.3874 32.2588 50.5605C31.9808 50.7337 31.8418 50.9707 31.8418 51.2715C31.8418 51.5039 31.9056 51.6953 32.0332 51.8457C32.1654 51.9961 32.375 52.1374 32.6621 52.2695C32.9492 52.4017 33.3275 52.5566 33.7969 52.7344C34.2663 52.9076 34.6719 53.0876 35.0137 53.2744C35.3555 53.4567 35.6175 53.68 35.7998 53.9443C35.9867 54.2041 36.0801 54.5391 36.0801 54.9492ZM40.3252 56.207C40.512 56.207 40.7035 56.1911 40.8994 56.1592C41.0954 56.1273 41.2549 56.0885 41.3779 56.043V56.9248C41.2458 56.984 41.0612 57.0342 40.8242 57.0752C40.5918 57.1162 40.3639 57.1367 40.1406 57.1367C39.7441 57.1367 39.3841 57.0684 39.0605 56.9316C38.737 56.7904 38.4772 56.5534 38.2812 56.2207C38.0898 55.888 37.9941 55.4277 37.9941 54.8398V50.3965H36.9277V49.8428L38.001 49.3984L38.4521 47.7715H39.1357V49.5078H41.3301V50.3965H39.1357V54.8057C39.1357 55.2751 39.2428 55.626 39.457 55.8584C39.6758 56.0908 39.9652 56.207 40.3252 56.207ZM45.6982 49.3848C46.5915 49.3848 47.2546 49.5853 47.6875 49.9863C48.1204 50.3874 48.3369 51.0277 48.3369 51.9072V57H47.5098L47.291 55.8926H47.2363C47.0267 56.166 46.8079 56.3962 46.5801 56.583C46.3522 56.7653 46.0879 56.9043 45.7871 57C45.4909 57.0911 45.1263 57.1367 44.6934 57.1367C44.2376 57.1367 43.832 57.057 43.4766 56.8975C43.1257 56.738 42.8477 56.4964 42.6426 56.1729C42.4421 55.8493 42.3418 55.4391 42.3418 54.9424C42.3418 54.195 42.638 53.6208 43.2305 53.2197C43.8229 52.8187 44.7253 52.5999 45.9375 52.5635L47.2295 52.5088V52.0508C47.2295 51.4036 47.0905 50.9502 46.8125 50.6904C46.5345 50.4307 46.1426 50.3008 45.6367 50.3008C45.2448 50.3008 44.8711 50.3577 44.5156 50.4717C44.1602 50.5856 43.8229 50.7201 43.5039 50.875L43.1553 50.0137C43.4925 49.8405 43.8799 49.6924 44.3174 49.5693C44.7549 49.4463 45.2152 49.3848 45.6982 49.3848ZM47.2158 53.3086L46.0742 53.3564C45.14 53.3929 44.4814 53.5456 44.0986 53.8145C43.7158 54.0833 43.5244 54.4639 43.5244 54.9561C43.5244 55.3844 43.6543 55.7012 43.9141 55.9062C44.1738 56.1113 44.5179 56.2139 44.9463 56.2139C45.6117 56.2139 46.1562 56.0293 46.5801 55.6602C47.0039 55.291 47.2158 54.7373 47.2158 53.999V53.3086ZM57.8594 49.3711C58.748 49.3711 59.4202 49.5898 59.876 50.0273C60.3317 50.4603 60.5596 51.1576 60.5596 52.1191V57H59.4385V52.1943C59.4385 51.57 59.2949 51.1029 59.0078 50.793C58.7253 50.4831 58.29 50.3281 57.7021 50.3281C56.8727 50.3281 56.2894 50.5628 55.9521 51.0322C55.6149 51.5016 55.4463 52.1829 55.4463 53.0762V57H54.3115V49.5078H55.2275L55.3984 50.5879H55.46C55.6195 50.3236 55.8223 50.1025 56.0684 49.9248C56.3145 49.7425 56.5902 49.6058 56.8955 49.5146C57.2008 49.4189 57.5221 49.3711 57.8594 49.3711ZM69.3574 53.2402C69.3574 53.8555 69.2777 54.4046 69.1182 54.8877C68.9587 55.3708 68.7285 55.7786 68.4277 56.1113C68.127 56.444 67.7624 56.6992 67.334 56.877C66.9102 57.0501 66.4294 57.1367 65.8916 57.1367C65.3903 57.1367 64.93 57.0501 64.5107 56.877C64.096 56.6992 63.736 56.444 63.4307 56.1113C63.1299 55.7786 62.8952 55.3708 62.7266 54.8877C62.5625 54.4046 62.4805 53.8555 62.4805 53.2402C62.4805 52.4199 62.6195 51.7227 62.8975 51.1484C63.1755 50.5697 63.5719 50.1299 64.0869 49.8291C64.6064 49.5238 65.224 49.3711 65.9395 49.3711C66.623 49.3711 67.2201 49.5238 67.7305 49.8291C68.2454 50.1344 68.6442 50.5765 68.9268 51.1553C69.2139 51.7295 69.3574 52.4245 69.3574 53.2402ZM63.6562 53.2402C63.6562 53.8418 63.736 54.3636 63.8955 54.8057C64.055 55.2477 64.3011 55.5895 64.6338 55.8311C64.9665 56.0726 65.3949 56.1934 65.9189 56.1934C66.4385 56.1934 66.8646 56.0726 67.1973 55.8311C67.5345 55.5895 67.7829 55.2477 67.9424 54.8057C68.1019 54.3636 68.1816 53.8418 68.1816 53.2402C68.1816 52.6432 68.1019 52.1283 67.9424 51.6953C67.7829 51.2578 67.5368 50.9206 67.2041 50.6836C66.8714 50.4466 66.4408 50.3281 65.9121 50.3281C65.1328 50.3281 64.5609 50.5856 64.1963 51.1006C63.8363 51.6156 63.6562 52.3288 63.6562 53.2402ZM79.8027 54.9492C79.8027 55.4277 79.682 55.8311 79.4404 56.1592C79.2035 56.4827 78.8617 56.7266 78.415 56.8906C77.973 57.0547 77.4443 57.1367 76.8291 57.1367C76.305 57.1367 75.8516 57.0957 75.4688 57.0137C75.0859 56.9316 74.751 56.8154 74.4639 56.665V55.6191C74.7692 55.7695 75.1338 55.9062 75.5576 56.0293C75.9814 56.1523 76.4144 56.2139 76.8564 56.2139C77.5036 56.2139 77.973 56.109 78.2646 55.8994C78.5563 55.6898 78.7021 55.4049 78.7021 55.0449C78.7021 54.8398 78.6429 54.6598 78.5244 54.5049C78.4105 54.3454 78.2168 54.1927 77.9434 54.0469C77.6699 53.8965 77.2917 53.7324 76.8086 53.5547C76.3301 53.3724 75.9154 53.1924 75.5645 53.0146C75.2181 52.8324 74.9492 52.6113 74.7578 52.3516C74.571 52.0918 74.4775 51.7546 74.4775 51.3398C74.4775 50.7064 74.7327 50.221 75.2432 49.8838C75.7581 49.542 76.4326 49.3711 77.2666 49.3711C77.7178 49.3711 78.1393 49.4167 78.5312 49.5078C78.9277 49.5944 79.2969 49.7129 79.6387 49.8633L79.2559 50.7725C78.946 50.6403 78.6156 50.5286 78.2646 50.4375C77.9137 50.3464 77.556 50.3008 77.1914 50.3008C76.6673 50.3008 76.264 50.3874 75.9814 50.5605C75.7035 50.7337 75.5645 50.9707 75.5645 51.2715C75.5645 51.5039 75.6283 51.6953 75.7559 51.8457C75.888 51.9961 76.0977 52.1374 76.3848 52.2695C76.6719 52.4017 77.0501 52.5566 77.5195 52.7344C77.9889 52.9076 78.3945 53.0876 78.7363 53.2744C79.0781 53.4567 79.3402 53.68 79.5225 53.9443C79.7093 54.2041 79.8027 54.5391 79.8027 54.9492ZM84.5127 49.3711C85.1507 49.3711 85.6976 49.5124 86.1533 49.7949C86.609 50.0775 86.9577 50.474 87.1992 50.9844C87.4408 51.4902 87.5615 52.0827 87.5615 52.7617V53.4658H82.3867C82.4004 54.3454 82.6191 55.0153 83.043 55.4756C83.4668 55.9359 84.0638 56.166 84.834 56.166C85.3079 56.166 85.7272 56.1227 86.0918 56.0361C86.4564 55.9495 86.8346 55.8219 87.2266 55.6533V56.6514C86.8483 56.82 86.4723 56.943 86.0986 57.0205C85.7295 57.098 85.292 57.1367 84.7861 57.1367C84.0661 57.1367 83.4372 56.9909 82.8994 56.6992C82.3662 56.403 81.9515 55.9701 81.6553 55.4004C81.359 54.8307 81.2109 54.1335 81.2109 53.3086C81.2109 52.502 81.3454 51.8047 81.6143 51.2168C81.8877 50.6243 82.2705 50.1686 82.7627 49.8496C83.2594 49.5306 83.8428 49.3711 84.5127 49.3711ZM84.499 50.3008C83.8929 50.3008 83.4098 50.499 83.0498 50.8955C82.6898 51.292 82.4756 51.8457 82.4072 52.5566H86.3721C86.3675 52.11 86.2969 51.7181 86.1602 51.3809C86.028 51.0391 85.8252 50.7747 85.5518 50.5879C85.2783 50.3965 84.9274 50.3008 84.499 50.3008ZM95.6758 49.5078V57H94.7461L94.582 55.9473H94.5205C94.3656 56.207 94.165 56.4258 93.9189 56.6035C93.6729 56.7812 93.3949 56.9134 93.085 57C92.7796 57.0911 92.4538 57.1367 92.1074 57.1367C91.515 57.1367 91.0182 57.041 90.6172 56.8496C90.2161 56.6582 89.9131 56.362 89.708 55.9609C89.5075 55.5599 89.4072 55.0449 89.4072 54.416V49.5078H90.5557V54.334C90.5557 54.9583 90.6969 55.4255 90.9795 55.7354C91.262 56.0407 91.6927 56.1934 92.2715 56.1934C92.8275 56.1934 93.2695 56.0885 93.5977 55.8789C93.9303 55.6693 94.1696 55.3617 94.3154 54.9561C94.4613 54.5459 94.5342 54.0446 94.5342 53.4521V49.5078H95.6758ZM104.713 57.1367C104.038 57.1367 103.444 56.9977 102.929 56.7197C102.414 56.4417 102.013 56.0179 101.726 55.4482C101.438 54.8786 101.295 54.1608 101.295 53.2949C101.295 52.388 101.445 51.6475 101.746 51.0732C102.051 50.4945 102.471 50.0661 103.004 49.7881C103.537 49.5101 104.143 49.3711 104.822 49.3711C105.196 49.3711 105.556 49.4098 105.902 49.4873C106.253 49.5602 106.54 49.6536 106.764 49.7676L106.422 50.7178C106.194 50.6266 105.93 50.5446 105.629 50.4717C105.333 50.3988 105.055 50.3623 104.795 50.3623C104.275 50.3623 103.842 50.474 103.496 50.6973C103.154 50.9206 102.897 51.2487 102.724 51.6816C102.555 52.1146 102.471 52.6478 102.471 53.2812C102.471 53.8874 102.553 54.4046 102.717 54.833C102.885 55.2614 103.134 55.5895 103.462 55.8174C103.795 56.0407 104.209 56.1523 104.706 56.1523C105.103 56.1523 105.46 56.1113 105.779 56.0293C106.098 55.9427 106.388 55.8424 106.647 55.7285V56.7402C106.397 56.8678 106.117 56.9658 105.807 57.0342C105.501 57.1025 105.137 57.1367 104.713 57.1367ZM114.885 53.2402C114.885 53.8555 114.805 54.4046 114.646 54.8877C114.486 55.3708 114.256 55.7786 113.955 56.1113C113.654 56.444 113.29 56.6992 112.861 56.877C112.438 57.0501 111.957 57.1367 111.419 57.1367C110.918 57.1367 110.457 57.0501 110.038 56.877C109.623 56.6992 109.263 56.444 108.958 56.1113C108.657 55.7786 108.423 55.3708 108.254 54.8877C108.09 54.4046 108.008 53.8555 108.008 53.2402C108.008 52.4199 108.147 51.7227 108.425 51.1484C108.703 50.5697 109.099 50.1299 109.614 49.8291C110.134 49.5238 110.751 49.3711 111.467 49.3711C112.15 49.3711 112.747 49.5238 113.258 49.8291C113.773 50.1344 114.172 50.5765 114.454 51.1553C114.741 51.7295 114.885 52.4245 114.885 53.2402ZM109.184 53.2402C109.184 53.8418 109.263 54.3636 109.423 54.8057C109.582 55.2477 109.828 55.5895 110.161 55.8311C110.494 56.0726 110.922 56.1934 111.446 56.1934C111.966 56.1934 112.392 56.0726 112.725 55.8311C113.062 55.5895 113.31 55.2477 113.47 54.8057C113.629 54.3636 113.709 53.8418 113.709 53.2402C113.709 52.6432 113.629 52.1283 113.47 51.6953C113.31 51.2578 113.064 50.9206 112.731 50.6836C112.399 50.4466 111.968 50.3281 111.439 50.3281C110.66 50.3281 110.088 50.5856 109.724 51.1006C109.364 51.6156 109.184 52.3288 109.184 53.2402ZM120.251 49.3711C120.401 49.3711 120.559 49.3802 120.723 49.3984C120.887 49.4121 121.033 49.4326 121.16 49.46L121.017 50.5127C120.894 50.4808 120.757 50.4557 120.606 50.4375C120.456 50.4193 120.315 50.4102 120.183 50.4102C119.882 50.4102 119.597 50.4717 119.328 50.5947C119.064 50.7132 118.831 50.8864 118.631 51.1143C118.43 51.3376 118.273 51.6087 118.159 51.9277C118.045 52.2422 117.988 52.5931 117.988 52.9805V57H116.847V49.5078H117.79L117.913 50.8887H117.961C118.116 50.6107 118.303 50.3577 118.521 50.1299C118.74 49.8975 118.993 49.7129 119.28 49.5762C119.572 49.4395 119.896 49.3711 120.251 49.3711ZM126.096 49.3711C127.03 49.3711 127.775 49.6924 128.331 50.335C128.887 50.9775 129.165 51.9437 129.165 53.2334C129.165 54.0856 129.037 54.8011 128.782 55.3799C128.527 55.9587 128.167 56.3962 127.702 56.6924C127.242 56.9886 126.697 57.1367 126.068 57.1367C125.672 57.1367 125.323 57.0843 125.022 56.9795C124.722 56.8747 124.464 56.7334 124.25 56.5557C124.036 56.3779 123.858 56.1842 123.717 55.9746H123.635C123.648 56.1523 123.664 56.3665 123.683 56.6172C123.705 56.8678 123.717 57.0866 123.717 57.2734V60.3496H122.575V49.5078H123.512L123.662 50.6152H123.717C123.863 50.3874 124.04 50.18 124.25 49.9932C124.46 49.8018 124.715 49.6514 125.016 49.542C125.321 49.4281 125.681 49.3711 126.096 49.3711ZM125.897 50.3281C125.378 50.3281 124.959 50.4284 124.64 50.6289C124.325 50.8294 124.095 51.1302 123.949 51.5312C123.803 51.9277 123.726 52.4268 123.717 53.0283V53.2471C123.717 53.8805 123.785 54.416 123.922 54.8535C124.063 55.291 124.293 55.6237 124.612 55.8516C124.936 56.0794 125.369 56.1934 125.911 56.1934C126.376 56.1934 126.763 56.068 127.073 55.8174C127.383 55.5667 127.613 55.2181 127.764 54.7715C127.919 54.3203 127.996 53.8031 127.996 53.2197C127.996 52.3356 127.823 51.6338 127.477 51.1143C127.135 50.5902 126.608 50.3281 125.897 50.3281ZM137.607 53.2402C137.607 53.8555 137.528 54.4046 137.368 54.8877C137.209 55.3708 136.979 55.7786 136.678 56.1113C136.377 56.444 136.012 56.6992 135.584 56.877C135.16 57.0501 134.679 57.1367 134.142 57.1367C133.64 57.1367 133.18 57.0501 132.761 56.877C132.346 56.6992 131.986 56.444 131.681 56.1113C131.38 55.7786 131.145 55.3708 130.977 54.8877C130.812 54.4046 130.73 53.8555 130.73 53.2402C130.73 52.4199 130.869 51.7227 131.147 51.1484C131.425 50.5697 131.822 50.1299 132.337 49.8291C132.856 49.5238 133.474 49.3711 134.189 49.3711C134.873 49.3711 135.47 49.5238 135.98 49.8291C136.495 50.1344 136.894 50.5765 137.177 51.1553C137.464 51.7295 137.607 52.4245 137.607 53.2402ZM131.906 53.2402C131.906 53.8418 131.986 54.3636 132.146 54.8057C132.305 55.2477 132.551 55.5895 132.884 55.8311C133.216 56.0726 133.645 56.1934 134.169 56.1934C134.688 56.1934 135.115 56.0726 135.447 55.8311C135.785 55.5895 136.033 55.2477 136.192 54.8057C136.352 54.3636 136.432 53.8418 136.432 53.2402C136.432 52.6432 136.352 52.1283 136.192 51.6953C136.033 51.2578 135.787 50.9206 135.454 50.6836C135.121 50.4466 134.691 50.3281 134.162 50.3281C133.383 50.3281 132.811 50.5856 132.446 51.1006C132.086 51.6156 131.906 52.3288 131.906 53.2402ZM146.091 49.3711C146.729 49.3711 147.276 49.5124 147.731 49.7949C148.187 50.0775 148.536 50.474 148.777 50.9844C149.019 51.4902 149.14 52.0827 149.14 52.7617V53.4658H143.965C143.979 54.3454 144.197 55.0153 144.621 55.4756C145.045 55.9359 145.642 56.166 146.412 56.166C146.886 56.166 147.305 56.1227 147.67 56.0361C148.035 55.9495 148.413 55.8219 148.805 55.6533V56.6514C148.426 56.82 148.05 56.943 147.677 57.0205C147.308 57.098 146.87 57.1367 146.364 57.1367C145.644 57.1367 145.015 56.9909 144.478 56.6992C143.944 56.403 143.53 55.9701 143.233 55.4004C142.937 54.8307 142.789 54.1335 142.789 53.3086C142.789 52.502 142.924 51.8047 143.192 51.2168C143.466 50.6243 143.849 50.1686 144.341 49.8496C144.838 49.5306 145.421 49.3711 146.091 49.3711ZM146.077 50.3008C145.471 50.3008 144.988 50.499 144.628 50.8955C144.268 51.292 144.054 51.8457 143.985 52.5566H147.95C147.946 52.11 147.875 51.7181 147.738 51.3809C147.606 51.0391 147.403 50.7747 147.13 50.5879C146.856 50.3965 146.506 50.3008 146.077 50.3008ZM157.821 55.4756C158.049 55.4756 158.27 55.4528 158.484 55.4072C158.703 55.3617 158.92 55.3047 159.134 55.2363V56.7881C158.91 56.8883 158.632 56.9704 158.3 57.0342C157.972 57.1025 157.612 57.1367 157.22 57.1367C156.764 57.1367 156.354 57.0638 155.989 56.918C155.629 56.7676 155.344 56.5101 155.135 56.1455C154.93 55.7764 154.827 55.2637 154.827 54.6074V50.9229H153.829V50.041L154.978 49.3438L155.579 47.7305H156.912V49.3574H159.052V50.9229H156.912V54.6074C156.912 54.8991 156.994 55.1178 157.158 55.2637C157.327 55.4049 157.548 55.4756 157.821 55.4756ZM163.837 49.2139C164.543 49.2139 165.152 49.3506 165.662 49.624C166.173 49.8929 166.567 50.2848 166.845 50.7998C167.123 51.3148 167.262 51.9437 167.262 52.6865V53.6982H162.333C162.356 54.2861 162.531 54.7487 162.859 55.0859C163.192 55.4186 163.652 55.585 164.24 55.585C164.728 55.585 165.174 55.5348 165.58 55.4346C165.986 55.3343 166.403 55.1839 166.831 54.9834V56.5967C166.453 56.7835 166.056 56.9202 165.642 57.0068C165.231 57.0934 164.732 57.1367 164.145 57.1367C163.379 57.1367 162.7 56.9954 162.107 56.7129C161.52 56.4303 161.057 55.9997 160.72 55.4209C160.387 54.8421 160.221 54.113 160.221 53.2334C160.221 52.3402 160.371 51.5973 160.672 51.0049C160.977 50.4079 161.401 49.9613 161.943 49.665C162.486 49.3643 163.117 49.2139 163.837 49.2139ZM163.851 50.6973C163.445 50.6973 163.108 50.8271 162.839 51.0869C162.575 51.3467 162.422 51.7546 162.381 52.3105H165.307C165.302 52.0007 165.245 51.7249 165.136 51.4834C165.031 51.2419 164.871 51.0505 164.657 50.9092C164.448 50.7679 164.179 50.6973 163.851 50.6973ZM173.298 49.2139C174.114 49.2139 174.77 49.4372 175.267 49.8838C175.763 50.3258 176.012 51.0368 176.012 52.0166V57H173.927V52.5361C173.927 51.9893 173.826 51.5768 173.626 51.2988C173.43 51.0208 173.12 50.8818 172.696 50.8818C172.058 50.8818 171.623 51.0983 171.391 51.5312C171.158 51.9642 171.042 52.5885 171.042 53.4043V57H168.957V49.3574H170.55L170.83 50.335H170.946C171.11 50.0706 171.313 49.8564 171.555 49.6924C171.801 49.5283 172.072 49.4076 172.368 49.3301C172.669 49.2526 172.979 49.2139 173.298 49.2139ZM180.243 46.3633V48.5303C180.243 48.9085 180.229 49.2686 180.202 49.6104C180.179 49.9521 180.161 50.1937 180.147 50.335H180.257C180.421 50.0706 180.615 49.8564 180.838 49.6924C181.066 49.5283 181.316 49.4076 181.59 49.3301C181.863 49.2526 182.157 49.2139 182.472 49.2139C183.023 49.2139 183.504 49.3118 183.914 49.5078C184.324 49.6992 184.643 50.0023 184.871 50.417C185.099 50.8271 185.213 51.3604 185.213 52.0166V57H183.128V52.5361C183.128 51.9893 183.028 51.5768 182.827 51.2988C182.627 51.0208 182.317 50.8818 181.897 50.8818C181.478 50.8818 181.148 50.9798 180.906 51.1758C180.665 51.3672 180.494 51.652 180.394 52.0303C180.293 52.404 180.243 52.862 180.243 53.4043V57H178.158V46.3633H180.243ZM190.49 49.2002C191.516 49.2002 192.302 49.4235 192.849 49.8701C193.396 50.3167 193.669 50.9958 193.669 51.9072V57H192.213L191.81 55.9609H191.755C191.536 56.2344 191.313 56.4577 191.085 56.6309C190.857 56.804 190.595 56.9316 190.299 57.0137C190.003 57.0957 189.643 57.1367 189.219 57.1367C188.768 57.1367 188.362 57.0501 188.002 56.877C187.646 56.7038 187.366 56.4395 187.161 56.084C186.956 55.724 186.854 55.2682 186.854 54.7168C186.854 53.9056 187.138 53.3086 187.708 52.9258C188.278 52.5384 189.132 52.3242 190.271 52.2832L191.598 52.2422V51.9072C191.598 51.5062 191.493 51.2122 191.283 51.0254C191.074 50.8385 190.782 50.7451 190.408 50.7451C190.039 50.7451 189.677 50.7975 189.321 50.9023C188.966 51.0072 188.61 51.1393 188.255 51.2988L187.564 49.8906C187.97 49.6764 188.424 49.5078 188.925 49.3848C189.431 49.2617 189.952 49.2002 190.49 49.2002ZM191.598 53.459L190.791 53.4863C190.117 53.5046 189.647 53.6253 189.383 53.8486C189.123 54.0719 188.993 54.3659 188.993 54.7305C188.993 55.0495 189.087 55.2773 189.273 55.4141C189.46 55.5462 189.704 55.6123 190.005 55.6123C190.451 55.6123 190.827 55.4801 191.133 55.2158C191.443 54.9515 191.598 54.5755 191.598 54.0879V53.459ZM208.435 49.2139C209.3 49.2139 209.954 49.4372 210.396 49.8838C210.843 50.3258 211.066 51.0368 211.066 52.0166V57H208.975V52.5361C208.975 51.9893 208.881 51.5768 208.694 51.2988C208.507 51.0208 208.218 50.8818 207.826 50.8818C207.275 50.8818 206.883 51.0801 206.65 51.4766C206.418 51.8685 206.302 52.4313 206.302 53.165V57H204.217V52.5361C204.217 52.1715 204.176 51.8662 204.094 51.6201C204.012 51.374 203.886 51.1895 203.718 51.0664C203.549 50.9434 203.333 50.8818 203.068 50.8818C202.681 50.8818 202.376 50.9798 202.152 51.1758C201.934 51.3672 201.776 51.652 201.681 52.0303C201.59 52.404 201.544 52.862 201.544 53.4043V57H199.459V49.3574H201.052L201.332 50.335H201.448C201.603 50.0706 201.797 49.8564 202.029 49.6924C202.266 49.5283 202.526 49.4076 202.809 49.3301C203.091 49.2526 203.378 49.2139 203.67 49.2139C204.23 49.2139 204.704 49.305 205.092 49.4873C205.484 49.6696 205.785 49.9521 205.994 50.335H206.179C206.407 49.943 206.728 49.6582 207.143 49.4805C207.562 49.3027 207.993 49.2139 208.435 49.2139ZM220.227 49.3574V57H218.627L218.347 56.0225H218.237C218.073 56.2822 217.868 56.4941 217.622 56.6582C217.376 56.8223 217.105 56.943 216.809 57.0205C216.512 57.098 216.205 57.1367 215.886 57.1367C215.339 57.1367 214.863 57.041 214.457 56.8496C214.051 56.6536 213.735 56.3506 213.507 55.9404C213.284 55.5303 213.172 54.9971 213.172 54.3408V49.3574H215.257V53.8213C215.257 54.3682 215.355 54.7806 215.551 55.0586C215.747 55.3366 216.059 55.4756 216.487 55.4756C216.911 55.4756 217.244 55.3799 217.485 55.1885C217.727 54.9925 217.896 54.7077 217.991 54.334C218.091 53.9557 218.142 53.4954 218.142 52.9531V49.3574H220.227ZM224.499 49.3574V57H222.414V49.3574H224.499ZM223.46 46.3633C223.77 46.3633 224.036 46.4362 224.26 46.582C224.483 46.7233 224.595 46.9899 224.595 47.3818C224.595 47.7692 224.483 48.0381 224.26 48.1885C224.036 48.3343 223.77 48.4072 223.46 48.4072C223.146 48.4072 222.877 48.3343 222.653 48.1885C222.435 48.0381 222.325 47.7692 222.325 47.3818C222.325 46.9899 222.435 46.7233 222.653 46.582C222.877 46.4362 223.146 46.3633 223.46 46.3633ZM229.913 55.4756C230.141 55.4756 230.362 55.4528 230.576 55.4072C230.795 55.3617 231.011 55.3047 231.226 55.2363V56.7881C231.002 56.8883 230.724 56.9704 230.392 57.0342C230.063 57.1025 229.703 57.1367 229.312 57.1367C228.856 57.1367 228.446 57.0638 228.081 56.918C227.721 56.7676 227.436 56.5101 227.227 56.1455C227.021 55.7764 226.919 55.2637 226.919 54.6074V50.9229H225.921V50.041L227.069 49.3438L227.671 47.7305H229.004V49.3574H231.144V50.9229H229.004V54.6074C229.004 54.8991 229.086 55.1178 229.25 55.2637C229.419 55.4049 229.64 55.4756 229.913 55.4756ZM239.723 53.165C239.723 53.8031 239.636 54.3682 239.463 54.8604C239.294 55.3525 239.046 55.7695 238.718 56.1113C238.394 56.4486 238.002 56.7038 237.542 56.877C237.086 57.0501 236.571 57.1367 235.997 57.1367C235.459 57.1367 234.965 57.0501 234.514 56.877C234.067 56.7038 233.677 56.4486 233.345 56.1113C233.017 55.7695 232.761 55.3525 232.579 54.8604C232.401 54.3682 232.312 53.8031 232.312 53.165C232.312 52.3174 232.463 51.5996 232.764 51.0117C233.064 50.4238 233.493 49.9772 234.049 49.6719C234.605 49.3665 235.268 49.2139 236.038 49.2139C236.754 49.2139 237.387 49.3665 237.938 49.6719C238.494 49.9772 238.93 50.4238 239.244 51.0117C239.563 51.5996 239.723 52.3174 239.723 53.165ZM234.438 53.165C234.438 53.6663 234.493 54.0879 234.603 54.4297C234.712 54.7715 234.883 55.029 235.115 55.2021C235.348 55.3753 235.651 55.4619 236.024 55.4619C236.394 55.4619 236.692 55.3753 236.92 55.2021C237.152 55.029 237.321 54.7715 237.426 54.4297C237.535 54.0879 237.59 53.6663 237.59 53.165C237.59 52.6592 237.535 52.2399 237.426 51.9072C237.321 51.57 237.152 51.3171 236.92 51.1484C236.688 50.9798 236.384 50.8955 236.011 50.8955C235.459 50.8955 235.058 51.0846 234.808 51.4629C234.562 51.8411 234.438 52.4085 234.438 53.165ZM254.058 49.2139C254.924 49.2139 255.577 49.4372 256.02 49.8838C256.466 50.3258 256.689 51.0368 256.689 52.0166V57H254.598V52.5361C254.598 51.9893 254.504 51.5768 254.317 51.2988C254.131 51.0208 253.841 50.8818 253.449 50.8818C252.898 50.8818 252.506 51.0801 252.273 51.4766C252.041 51.8685 251.925 52.4313 251.925 53.165V57H249.84V52.5361C249.84 52.1715 249.799 51.8662 249.717 51.6201C249.635 51.374 249.509 51.1895 249.341 51.0664C249.172 50.9434 248.956 50.8818 248.691 50.8818C248.304 50.8818 247.999 50.9798 247.775 51.1758C247.557 51.3672 247.399 51.652 247.304 52.0303C247.213 52.404 247.167 52.862 247.167 53.4043V57H245.082V49.3574H246.675L246.955 50.335H247.071C247.226 50.0706 247.42 49.8564 247.652 49.6924C247.889 49.5283 248.149 49.4076 248.432 49.3301C248.714 49.2526 249.001 49.2139 249.293 49.2139C249.854 49.2139 250.327 49.305 250.715 49.4873C251.107 49.6696 251.408 49.9521 251.617 50.335H251.802C252.03 49.943 252.351 49.6582 252.766 49.4805C253.185 49.3027 253.616 49.2139 254.058 49.2139ZM261.967 49.2002C262.992 49.2002 263.778 49.4235 264.325 49.8701C264.872 50.3167 265.146 50.9958 265.146 51.9072V57H263.689L263.286 55.9609H263.231C263.013 56.2344 262.789 56.4577 262.562 56.6309C262.334 56.804 262.072 56.9316 261.775 57.0137C261.479 57.0957 261.119 57.1367 260.695 57.1367C260.244 57.1367 259.839 57.0501 259.479 56.877C259.123 56.7038 258.843 56.4395 258.638 56.084C258.433 55.724 258.33 55.2682 258.33 54.7168C258.33 53.9056 258.615 53.3086 259.185 52.9258C259.754 52.5384 260.609 52.3242 261.748 52.2832L263.074 52.2422V51.9072C263.074 51.5062 262.969 51.2122 262.76 51.0254C262.55 50.8385 262.258 50.7451 261.885 50.7451C261.516 50.7451 261.153 50.7975 260.798 50.9023C260.442 51.0072 260.087 51.1393 259.731 51.2988L259.041 49.8906C259.447 49.6764 259.9 49.5078 260.401 49.3848C260.907 49.2617 261.429 49.2002 261.967 49.2002ZM263.074 53.459L262.268 53.4863C261.593 53.5046 261.124 53.6253 260.859 53.8486C260.6 54.0719 260.47 54.3659 260.47 54.7305C260.47 55.0495 260.563 55.2773 260.75 55.4141C260.937 55.5462 261.181 55.6123 261.481 55.6123C261.928 55.6123 262.304 55.4801 262.609 55.2158C262.919 54.9515 263.074 54.5755 263.074 54.0879V53.459ZM269.384 49.3574V57H267.299V49.3574H269.384ZM268.345 46.3633C268.655 46.3633 268.921 46.4362 269.145 46.582C269.368 46.7233 269.479 46.9899 269.479 47.3818C269.479 47.7692 269.368 48.0381 269.145 48.1885C268.921 48.3343 268.655 48.4072 268.345 48.4072C268.03 48.4072 267.761 48.3343 267.538 48.1885C267.319 48.0381 267.21 47.7692 267.21 47.3818C267.21 46.9899 267.319 46.7233 267.538 46.582C267.761 46.4362 268.03 46.3633 268.345 46.3633ZM276.91 54.7305C276.91 55.25 276.787 55.6898 276.541 56.0498C276.299 56.4053 275.937 56.6764 275.454 56.8633C274.971 57.0456 274.369 57.1367 273.649 57.1367C273.116 57.1367 272.658 57.1025 272.275 57.0342C271.897 56.9658 271.514 56.8519 271.127 56.6924V54.9697C271.542 55.1566 271.986 55.3115 272.46 55.4346C272.938 55.5531 273.358 55.6123 273.718 55.6123C274.123 55.6123 274.413 55.5531 274.586 55.4346C274.764 55.3115 274.853 55.152 274.853 54.9561C274.853 54.8285 274.816 54.7145 274.743 54.6143C274.675 54.5094 274.524 54.3932 274.292 54.2656C274.06 54.1335 273.695 53.9626 273.198 53.7529C272.72 53.5524 272.326 53.3496 272.016 53.1445C271.71 52.9395 271.482 52.6979 271.332 52.4199C271.186 52.1374 271.113 51.7796 271.113 51.3467C271.113 50.6403 271.387 50.1094 271.934 49.7539C272.485 49.3939 273.221 49.2139 274.142 49.2139C274.616 49.2139 275.067 49.2617 275.495 49.3574C275.928 49.4531 276.372 49.6058 276.828 49.8154L276.199 51.3193C275.821 51.1553 275.463 51.0208 275.126 50.916C274.793 50.8112 274.454 50.7588 274.107 50.7588C273.802 50.7588 273.572 50.7998 273.417 50.8818C273.262 50.9639 273.185 51.0892 273.185 51.2578C273.185 51.3809 273.223 51.4902 273.301 51.5859C273.383 51.6816 273.538 51.7887 273.766 51.9072C273.998 52.0212 274.338 52.1693 274.784 52.3516C275.217 52.5293 275.593 52.7161 275.912 52.9121C276.231 53.1035 276.477 53.3428 276.65 53.6299C276.824 53.9124 276.91 54.2793 276.91 54.7305ZM286.426 49.2139C287.287 49.2139 287.982 49.5488 288.511 50.2188C289.044 50.8887 289.311 51.8708 289.311 53.165C289.311 54.0309 289.185 54.7601 288.935 55.3525C288.684 55.9404 288.338 56.3848 287.896 56.6855C287.453 56.9863 286.945 57.1367 286.371 57.1367C286.002 57.1367 285.685 57.0911 285.421 57C285.157 56.9043 284.931 56.7835 284.744 56.6377C284.557 56.4873 284.396 56.3278 284.259 56.1592H284.149C284.186 56.3415 284.213 56.5283 284.231 56.7197C284.25 56.9111 284.259 57.098 284.259 57.2803V60.3633H282.174V49.3574H283.869L284.163 50.3486H284.259C284.396 50.1436 284.562 49.9544 284.758 49.7812C284.954 49.6081 285.188 49.4714 285.462 49.3711C285.74 49.2663 286.061 49.2139 286.426 49.2139ZM285.756 50.8818C285.391 50.8818 285.102 50.957 284.888 51.1074C284.674 51.2578 284.516 51.4834 284.416 51.7842C284.32 52.085 284.268 52.4655 284.259 52.9258V53.1514C284.259 53.6436 284.304 54.0605 284.396 54.4023C284.491 54.7441 284.648 55.0039 284.867 55.1816C285.09 55.3594 285.396 55.4482 285.783 55.4482C286.102 55.4482 286.364 55.3594 286.569 55.1816C286.774 55.0039 286.927 54.7441 287.027 54.4023C287.132 54.056 287.185 53.6344 287.185 53.1377C287.185 52.3903 287.068 51.8275 286.836 51.4492C286.604 51.071 286.243 50.8818 285.756 50.8818ZM294.185 49.2139C294.891 49.2139 295.499 49.3506 296.01 49.624C296.52 49.8929 296.914 50.2848 297.192 50.7998C297.47 51.3148 297.609 51.9437 297.609 52.6865V53.6982H292.681C292.703 54.2861 292.879 54.7487 293.207 55.0859C293.54 55.4186 294 55.585 294.588 55.585C295.076 55.585 295.522 55.5348 295.928 55.4346C296.333 55.3343 296.75 55.1839 297.179 54.9834V56.5967C296.8 56.7835 296.404 56.9202 295.989 57.0068C295.579 57.0934 295.08 57.1367 294.492 57.1367C293.727 57.1367 293.048 56.9954 292.455 56.7129C291.867 56.4303 291.405 55.9997 291.067 55.4209C290.735 54.8421 290.568 54.113 290.568 53.2334C290.568 52.3402 290.719 51.5973 291.02 51.0049C291.325 50.4079 291.749 49.9613 292.291 49.665C292.833 49.3643 293.465 49.2139 294.185 49.2139ZM294.198 50.6973C293.793 50.6973 293.455 50.8271 293.187 51.0869C292.922 51.3467 292.77 51.7546 292.729 52.3105H295.654C295.65 52.0007 295.593 51.7249 295.483 51.4834C295.379 51.2419 295.219 51.0505 295.005 50.9092C294.795 50.7679 294.526 50.6973 294.198 50.6973ZM303.57 49.2139C303.675 49.2139 303.796 49.2207 303.933 49.2344C304.074 49.2435 304.188 49.2572 304.274 49.2754L304.117 51.2305C304.049 51.2077 303.951 51.1917 303.823 51.1826C303.7 51.1689 303.593 51.1621 303.502 51.1621C303.233 51.1621 302.971 51.1963 302.716 51.2646C302.465 51.333 302.24 51.4447 302.039 51.5996C301.839 51.75 301.679 51.9505 301.561 52.2012C301.447 52.4473 301.39 52.7503 301.39 53.1104V57H299.305V49.3574H300.884L301.191 50.6426H301.294C301.444 50.3828 301.631 50.1458 301.854 49.9316C302.082 49.7129 302.34 49.5397 302.627 49.4121C302.919 49.2799 303.233 49.2139 303.57 49.2139ZM309.887 50.9229H308.082V57H305.997V50.9229H304.849V49.918L305.997 49.3574V48.7969C305.997 48.1452 306.106 47.6393 306.325 47.2793C306.549 46.9147 306.861 46.6595 307.262 46.5137C307.667 46.3633 308.146 46.2881 308.697 46.2881C309.103 46.2881 309.472 46.3223 309.805 46.3906C310.137 46.4544 310.409 46.5273 310.618 46.6094L310.085 48.1406C309.925 48.0905 309.752 48.0449 309.565 48.0039C309.379 47.9629 309.164 47.9424 308.923 47.9424C308.631 47.9424 308.417 48.0312 308.28 48.209C308.148 48.3822 308.082 48.6055 308.082 48.8789V49.3574H309.887V50.9229ZM318.035 53.165C318.035 53.8031 317.949 54.3682 317.775 54.8604C317.607 55.3525 317.358 55.7695 317.03 56.1113C316.707 56.4486 316.315 56.7038 315.854 56.877C315.399 57.0501 314.884 57.1367 314.31 57.1367C313.772 57.1367 313.277 57.0501 312.826 56.877C312.38 56.7038 311.99 56.4486 311.657 56.1113C311.329 55.7695 311.074 55.3525 310.892 54.8604C310.714 54.3682 310.625 53.8031 310.625 53.165C310.625 52.3174 310.775 51.5996 311.076 51.0117C311.377 50.4238 311.805 49.9772 312.361 49.6719C312.917 49.3665 313.58 49.2139 314.351 49.2139C315.066 49.2139 315.7 49.3665 316.251 49.6719C316.807 49.9772 317.242 50.4238 317.557 51.0117C317.876 51.5996 318.035 52.3174 318.035 53.165ZM312.751 53.165C312.751 53.6663 312.806 54.0879 312.915 54.4297C313.024 54.7715 313.195 55.029 313.428 55.2021C313.66 55.3753 313.963 55.4619 314.337 55.4619C314.706 55.4619 315.005 55.3753 315.232 55.2021C315.465 55.029 315.633 54.7715 315.738 54.4297C315.848 54.0879 315.902 53.6663 315.902 53.165C315.902 52.6592 315.848 52.2399 315.738 51.9072C315.633 51.57 315.465 51.3171 315.232 51.1484C315 50.9798 314.697 50.8955 314.323 50.8955C313.772 50.8955 313.371 51.0846 313.12 51.4629C312.874 51.8411 312.751 52.4085 312.751 53.165ZM324.023 49.2139C324.128 49.2139 324.249 49.2207 324.386 49.2344C324.527 49.2435 324.641 49.2572 324.728 49.2754L324.57 51.2305C324.502 51.2077 324.404 51.1917 324.276 51.1826C324.153 51.1689 324.046 51.1621 323.955 51.1621C323.686 51.1621 323.424 51.1963 323.169 51.2646C322.918 51.333 322.693 51.4447 322.492 51.5996C322.292 51.75 322.132 51.9505 322.014 52.2012C321.9 52.4473 321.843 52.7503 321.843 53.1104V57H319.758V49.3574H321.337L321.645 50.6426H321.747C321.897 50.3828 322.084 50.1458 322.308 49.9316C322.535 49.7129 322.793 49.5397 323.08 49.4121C323.372 49.2799 323.686 49.2139 324.023 49.2139ZM335.091 49.2139C335.957 49.2139 336.611 49.4372 337.053 49.8838C337.499 50.3258 337.723 51.0368 337.723 52.0166V57H335.631V52.5361C335.631 51.9893 335.537 51.5768 335.351 51.2988C335.164 51.0208 334.874 50.8818 334.482 50.8818C333.931 50.8818 333.539 51.0801 333.307 51.4766C333.074 51.8685 332.958 52.4313 332.958 53.165V57H330.873V52.5361C330.873 52.1715 330.832 51.8662 330.75 51.6201C330.668 51.374 330.543 51.1895 330.374 51.0664C330.205 50.9434 329.989 50.8818 329.725 50.8818C329.337 50.8818 329.032 50.9798 328.809 51.1758C328.59 51.3672 328.433 51.652 328.337 52.0303C328.246 52.404 328.2 52.862 328.2 53.4043V57H326.115V49.3574H327.708L327.988 50.335H328.104C328.259 50.0706 328.453 49.8564 328.686 49.6924C328.923 49.5283 329.182 49.4076 329.465 49.3301C329.747 49.2526 330.035 49.2139 330.326 49.2139C330.887 49.2139 331.361 49.305 331.748 49.4873C332.14 49.6696 332.441 49.9521 332.65 50.335H332.835C333.063 49.943 333.384 49.6582 333.799 49.4805C334.218 49.3027 334.649 49.2139 335.091 49.2139ZM343 49.2002C344.025 49.2002 344.812 49.4235 345.358 49.8701C345.905 50.3167 346.179 50.9958 346.179 51.9072V57H344.723L344.319 55.9609H344.265C344.046 56.2344 343.823 56.4577 343.595 56.6309C343.367 56.804 343.105 56.9316 342.809 57.0137C342.512 57.0957 342.152 57.1367 341.729 57.1367C341.277 57.1367 340.872 57.0501 340.512 56.877C340.156 56.7038 339.876 56.4395 339.671 56.084C339.466 55.724 339.363 55.2682 339.363 54.7168C339.363 53.9056 339.648 53.3086 340.218 52.9258C340.787 52.5384 341.642 52.3242 342.781 52.2832L344.107 52.2422V51.9072C344.107 51.5062 344.003 51.2122 343.793 51.0254C343.583 50.8385 343.292 50.7451 342.918 50.7451C342.549 50.7451 342.187 50.7975 341.831 50.9023C341.476 51.0072 341.12 51.1393 340.765 51.2988L340.074 49.8906C340.48 49.6764 340.933 49.5078 341.435 49.3848C341.94 49.2617 342.462 49.2002 343 49.2002ZM344.107 53.459L343.301 53.4863C342.626 53.5046 342.157 53.6253 341.893 53.8486C341.633 54.0719 341.503 54.3659 341.503 54.7305C341.503 55.0495 341.596 55.2773 341.783 55.4141C341.97 55.5462 342.214 55.6123 342.515 55.6123C342.961 55.6123 343.337 55.4801 343.643 55.2158C343.952 54.9515 344.107 54.5755 344.107 54.0879V53.459ZM352.673 49.2139C353.489 49.2139 354.145 49.4372 354.642 49.8838C355.138 50.3258 355.387 51.0368 355.387 52.0166V57H353.302V52.5361C353.302 51.9893 353.201 51.5768 353.001 51.2988C352.805 51.0208 352.495 50.8818 352.071 50.8818C351.433 50.8818 350.998 51.0983 350.766 51.5312C350.533 51.9642 350.417 52.5885 350.417 53.4043V57H348.332V49.3574H349.925L350.205 50.335H350.321C350.485 50.0706 350.688 49.8564 350.93 49.6924C351.176 49.5283 351.447 49.4076 351.743 49.3301C352.044 49.2526 352.354 49.2139 352.673 49.2139ZM360.637 57.1367C359.88 57.1367 359.235 57 358.702 56.7266C358.169 56.4486 357.763 56.0202 357.485 55.4414C357.207 54.8626 357.068 54.1221 357.068 53.2197C357.068 52.2855 357.226 51.5244 357.54 50.9365C357.859 50.3441 358.299 49.9089 358.859 49.6309C359.424 49.3529 360.078 49.2139 360.821 49.2139C361.35 49.2139 361.806 49.2663 362.188 49.3711C362.576 49.4714 362.913 49.5921 363.2 49.7334L362.585 51.3467C362.257 51.2145 361.951 51.1074 361.669 51.0254C361.386 50.9388 361.104 50.8955 360.821 50.8955C360.457 50.8955 360.154 50.9821 359.912 51.1553C359.671 51.3239 359.491 51.5791 359.372 51.9209C359.254 52.2627 359.194 52.6911 359.194 53.2061C359.194 53.7119 359.258 54.1312 359.386 54.4639C359.513 54.7965 359.698 55.0449 359.939 55.209C360.181 55.3685 360.475 55.4482 360.821 55.4482C361.254 55.4482 361.639 55.3913 361.977 55.2773C362.314 55.1589 362.642 54.9948 362.961 54.7852V56.5693C362.642 56.7699 362.307 56.9134 361.956 57C361.61 57.0911 361.17 57.1367 360.637 57.1367ZM367.89 49.2139C368.596 49.2139 369.204 49.3506 369.715 49.624C370.225 49.8929 370.619 50.2848 370.897 50.7998C371.175 51.3148 371.314 51.9437 371.314 52.6865V53.6982H366.386C366.409 54.2861 366.584 54.7487 366.912 55.0859C367.245 55.4186 367.705 55.585 368.293 55.585C368.781 55.585 369.227 55.5348 369.633 55.4346C370.038 55.3343 370.455 55.1839 370.884 54.9834V56.5967C370.506 56.7835 370.109 56.9202 369.694 57.0068C369.284 57.0934 368.785 57.1367 368.197 57.1367C367.432 57.1367 366.753 56.9954 366.16 56.7129C365.572 56.4303 365.11 55.9997 364.772 55.4209C364.44 54.8421 364.273 54.113 364.273 53.2334C364.273 52.3402 364.424 51.5973 364.725 51.0049C365.03 50.4079 365.454 49.9613 365.996 49.665C366.538 49.3643 367.17 49.2139 367.89 49.2139ZM367.903 50.6973C367.498 50.6973 367.16 50.8271 366.892 51.0869C366.627 51.3467 366.475 51.7546 366.434 52.3105H369.359C369.355 52.0007 369.298 51.7249 369.188 51.4834C369.084 51.2419 368.924 51.0505 368.71 50.9092C368.5 50.7679 368.231 50.6973 367.903 50.6973ZM379.634 49.3711C380.272 49.3711 380.819 49.5124 381.274 49.7949C381.73 50.0775 382.079 50.474 382.32 50.9844C382.562 51.4902 382.683 52.0827 382.683 52.7617V53.4658H377.508C377.521 54.3454 377.74 55.0153 378.164 55.4756C378.588 55.9359 379.185 56.166 379.955 56.166C380.429 56.166 380.848 56.1227 381.213 56.0361C381.577 55.9495 381.956 55.8219 382.348 55.6533V56.6514C381.969 56.82 381.593 56.943 381.22 57.0205C380.851 57.098 380.413 57.1367 379.907 57.1367C379.187 57.1367 378.558 56.9909 378.021 56.6992C377.487 56.403 377.073 55.9701 376.776 55.4004C376.48 54.8307 376.332 54.1335 376.332 53.3086C376.332 52.502 376.466 51.8047 376.735 51.2168C377.009 50.6243 377.392 50.1686 377.884 49.8496C378.381 49.5306 378.964 49.3711 379.634 49.3711ZM379.62 50.3008C379.014 50.3008 378.531 50.499 378.171 50.8955C377.811 51.292 377.597 51.8457 377.528 52.5566H381.493C381.489 52.11 381.418 51.7181 381.281 51.3809C381.149 51.0391 380.946 50.7747 380.673 50.5879C380.399 50.3965 380.049 50.3008 379.62 50.3008ZM13.2207 88.3496V85.1367C13.2207 84.959 13.2253 84.7539 13.2344 84.5215C13.2435 84.2891 13.2594 84.0885 13.2822 83.9199H13.207C12.9974 84.2663 12.6989 84.5557 12.3115 84.7881C11.9242 85.0205 11.4251 85.1367 10.8145 85.1367C9.89844 85.1367 9.16243 84.8132 8.60645 84.166C8.05046 83.5189 7.77246 82.5527 7.77246 81.2676C7.77246 80.4245 7.90007 79.7135 8.15527 79.1348C8.41048 78.556 8.77051 78.1185 9.23535 77.8223C9.70475 77.5215 10.2516 77.3711 10.876 77.3711C11.473 77.3711 11.9606 77.4896 12.3389 77.7266C12.7171 77.959 13.0133 78.2438 13.2275 78.5811H13.2822L13.4531 77.5078H14.3555V88.3496H13.2207ZM11.0264 84.1934C11.555 84.1934 11.9788 84.0954 12.2979 83.8994C12.6169 83.6989 12.8493 83.3981 12.9951 82.9971C13.1455 82.596 13.2253 82.097 13.2344 81.5V81.2607C13.2344 80.2946 13.0703 79.5632 12.7422 79.0664C12.4141 78.5651 11.8421 78.3145 11.0264 78.3145C10.3245 78.3145 9.80273 78.5833 9.46094 79.1211C9.11914 79.6543 8.94824 80.3789 8.94824 81.2949C8.94824 82.2109 9.11914 82.9242 9.46094 83.4346C9.80273 83.9404 10.3245 84.1934 11.0264 84.1934ZM22.9551 77.5078V85H22.0254L21.8613 83.9473H21.7998C21.6449 84.207 21.4443 84.4258 21.1982 84.6035C20.9521 84.7812 20.6742 84.9134 20.3643 85C20.0589 85.0911 19.7331 85.1367 19.3867 85.1367C18.7943 85.1367 18.2975 85.041 17.8965 84.8496C17.4954 84.6582 17.1924 84.362 16.9873 83.9609C16.7868 83.5599 16.6865 83.0449 16.6865 82.416V77.5078H17.835V82.334C17.835 82.9583 17.9762 83.4255 18.2588 83.7354C18.5413 84.0407 18.972 84.1934 19.5508 84.1934C20.1068 84.1934 20.5488 84.0885 20.877 83.8789C21.2096 83.6693 21.4489 83.3617 21.5947 82.9561C21.7406 82.5459 21.8135 82.0446 21.8135 81.4521V77.5078H22.9551ZM28.1572 77.3848C29.0505 77.3848 29.7135 77.5853 30.1465 77.9863C30.5794 78.3874 30.7959 79.0277 30.7959 79.9072V85H29.9688L29.75 83.8926H29.6953C29.4857 84.166 29.2669 84.3962 29.0391 84.583C28.8112 84.7653 28.5469 84.9043 28.2461 85C27.9499 85.0911 27.5853 85.1367 27.1523 85.1367C26.6966 85.1367 26.291 85.057 25.9355 84.8975C25.5846 84.738 25.3066 84.4964 25.1016 84.1729C24.901 83.8493 24.8008 83.4391 24.8008 82.9424C24.8008 82.195 25.097 81.6208 25.6895 81.2197C26.2819 80.8187 27.1842 80.5999 28.3965 80.5635L29.6885 80.5088V80.0508C29.6885 79.4036 29.5495 78.9502 29.2715 78.6904C28.9935 78.4307 28.6016 78.3008 28.0957 78.3008C27.7038 78.3008 27.3301 78.3577 26.9746 78.4717C26.6191 78.5856 26.2819 78.7201 25.9629 78.875L25.6143 78.0137C25.9515 77.8405 26.3389 77.6924 26.7764 77.5693C27.2139 77.4463 27.6742 77.3848 28.1572 77.3848ZM29.6748 81.3086L28.5332 81.3564C27.599 81.3929 26.9404 81.5456 26.5576 81.8145C26.1748 82.0833 25.9834 82.4639 25.9834 82.9561C25.9834 83.3844 26.1133 83.7012 26.373 83.9062C26.6328 84.1113 26.9769 84.2139 27.4053 84.2139C28.0706 84.2139 28.6152 84.0293 29.0391 83.6602C29.4629 83.291 29.6748 82.7373 29.6748 81.999V81.3086ZM34.2754 85H33.1338V74.3633H34.2754V85ZM37.8096 77.5078V85H36.6748V77.5078H37.8096ZM37.2559 74.7051C37.4427 74.7051 37.6022 74.7666 37.7344 74.8896C37.8711 75.0081 37.9395 75.195 37.9395 75.4502C37.9395 75.7008 37.8711 75.8877 37.7344 76.0107C37.6022 76.1338 37.4427 76.1953 37.2559 76.1953C37.0599 76.1953 36.8958 76.1338 36.7637 76.0107C36.6361 75.8877 36.5723 75.7008 36.5723 75.4502C36.5723 75.195 36.6361 75.0081 36.7637 74.8896C36.8958 74.7666 37.0599 74.7051 37.2559 74.7051ZM42.8818 85.1367C41.9339 85.1367 41.182 84.8132 40.626 84.166C40.0745 83.5189 39.7988 82.5573 39.7988 81.2812C39.7988 79.9915 40.0814 79.0186 40.6465 78.3623C41.2116 77.7015 41.9635 77.3711 42.9023 77.3711C43.2988 77.3711 43.6452 77.4235 43.9414 77.5283C44.2376 77.6331 44.4928 77.7744 44.707 77.9521C44.9212 78.1253 45.1012 78.3236 45.2471 78.5469H45.3291C45.3109 78.4056 45.2926 78.2119 45.2744 77.9658C45.2562 77.7197 45.2471 77.5192 45.2471 77.3643V74.3633H46.3818V85H45.4658L45.2949 83.9336H45.2471C45.1058 84.1569 44.9258 84.3597 44.707 84.542C44.4928 84.7243 44.2354 84.8701 43.9346 84.9795C43.6383 85.0843 43.2874 85.1367 42.8818 85.1367ZM43.0596 84.1934C43.8617 84.1934 44.429 83.9655 44.7617 83.5098C45.0944 83.054 45.2607 82.3773 45.2607 81.4795V81.2744C45.2607 80.3219 45.1012 79.5905 44.7822 79.0801C44.4678 78.5697 43.8936 78.3145 43.0596 78.3145C42.3623 78.3145 41.8405 78.5833 41.4941 79.1211C41.1478 79.6543 40.9746 80.3835 40.9746 81.3086C40.9746 82.2292 41.1455 82.9401 41.4873 83.4414C41.8337 83.9427 42.3577 84.1934 43.0596 84.1934ZM51.5908 77.3848C52.484 77.3848 53.1471 77.5853 53.5801 77.9863C54.013 78.3874 54.2295 79.0277 54.2295 79.9072V85H53.4023L53.1836 83.8926H53.1289C52.9193 84.166 52.7005 84.3962 52.4727 84.583C52.2448 84.7653 51.9805 84.9043 51.6797 85C51.3835 85.0911 51.0189 85.1367 50.5859 85.1367C50.1302 85.1367 49.7246 85.057 49.3691 84.8975C49.0182 84.738 48.7402 84.4964 48.5352 84.1729C48.3346 83.8493 48.2344 83.4391 48.2344 82.9424C48.2344 82.195 48.5306 81.6208 49.123 81.2197C49.7155 80.8187 50.6178 80.5999 51.8301 80.5635L53.1221 80.5088V80.0508C53.1221 79.4036 52.9831 78.9502 52.7051 78.6904C52.4271 78.4307 52.0352 78.3008 51.5293 78.3008C51.1374 78.3008 50.7637 78.3577 50.4082 78.4717C50.0527 78.5856 49.7155 78.7201 49.3965 78.875L49.0479 78.0137C49.3851 77.8405 49.7725 77.6924 50.21 77.5693C50.6475 77.4463 51.1077 77.3848 51.5908 77.3848ZM53.1084 81.3086L51.9668 81.3564C51.0326 81.3929 50.374 81.5456 49.9912 81.8145C49.6084 82.0833 49.417 82.4639 49.417 82.9561C49.417 83.3844 49.5469 83.7012 49.8066 83.9062C50.0664 84.1113 50.4105 84.2139 50.8389 84.2139C51.5042 84.2139 52.0488 84.0293 52.4727 83.6602C52.8965 83.291 53.1084 82.7373 53.1084 81.999V81.3086ZM59.2334 85.1367C58.2855 85.1367 57.5335 84.8132 56.9775 84.166C56.4261 83.5189 56.1504 82.5573 56.1504 81.2812C56.1504 79.9915 56.4329 79.0186 56.998 78.3623C57.5632 77.7015 58.3151 77.3711 59.2539 77.3711C59.6504 77.3711 59.9967 77.4235 60.293 77.5283C60.5892 77.6331 60.8444 77.7744 61.0586 77.9521C61.2728 78.1253 61.4528 78.3236 61.5986 78.5469H61.6807C61.6624 78.4056 61.6442 78.2119 61.626 77.9658C61.6077 77.7197 61.5986 77.5192 61.5986 77.3643V74.3633H62.7334V85H61.8174L61.6465 83.9336H61.5986C61.4574 84.1569 61.2773 84.3597 61.0586 84.542C60.8444 84.7243 60.5869 84.8701 60.2861 84.9795C59.9899 85.0843 59.639 85.1367 59.2334 85.1367ZM59.4111 84.1934C60.2132 84.1934 60.7806 83.9655 61.1133 83.5098C61.446 83.054 61.6123 82.3773 61.6123 81.4795V81.2744C61.6123 80.3219 61.4528 79.5905 61.1338 79.0801C60.8193 78.5697 60.2451 78.3145 59.4111 78.3145C58.7139 78.3145 58.1921 78.5833 57.8457 79.1211C57.4993 79.6543 57.3262 80.3835 57.3262 81.3086C57.3262 82.2292 57.4971 82.9401 57.8389 83.4414C58.1852 83.9427 58.7093 84.1934 59.4111 84.1934ZM68.0244 77.3711C68.6624 77.3711 69.2093 77.5124 69.665 77.7949C70.1208 78.0775 70.4694 78.474 70.7109 78.9844C70.9525 79.4902 71.0732 80.0827 71.0732 80.7617V81.4658H65.8984C65.9121 82.3454 66.1309 83.0153 66.5547 83.4756C66.9785 83.9359 67.5755 84.166 68.3457 84.166C68.8197 84.166 69.2389 84.1227 69.6035 84.0361C69.9681 83.9495 70.3464 83.8219 70.7383 83.6533V84.6514C70.36 84.82 69.984 84.943 69.6104 85.0205C69.2412 85.098 68.8037 85.1367 68.2979 85.1367C67.5778 85.1367 66.9489 84.9909 66.4111 84.6992C65.8779 84.403 65.4632 83.9701 65.167 83.4004C64.8708 82.8307 64.7227 82.1335 64.7227 81.3086C64.7227 80.502 64.8571 79.8047 65.126 79.2168C65.3994 78.6243 65.7822 78.1686 66.2744 77.8496C66.7712 77.5306 67.3545 77.3711 68.0244 77.3711ZM68.0107 78.3008C67.4046 78.3008 66.9215 78.499 66.5615 78.8955C66.2015 79.292 65.9873 79.8457 65.9189 80.5566H69.8838C69.8792 80.11 69.8086 79.7181 69.6719 79.3809C69.5397 79.0391 69.3369 78.7747 69.0635 78.5879C68.79 78.3965 68.4391 78.3008 68.0107 78.3008ZM79.3037 85.1367C78.3558 85.1367 77.6038 84.8132 77.0479 84.166C76.4964 83.5189 76.2207 82.5573 76.2207 81.2812C76.2207 79.9915 76.5033 79.0186 77.0684 78.3623C77.6335 77.7015 78.3854 77.3711 79.3242 77.3711C79.7207 77.3711 80.0671 77.4235 80.3633 77.5283C80.6595 77.6331 80.9147 77.7744 81.1289 77.9521C81.3431 78.1253 81.5231 78.3236 81.6689 78.5469H81.751C81.7327 78.4056 81.7145 78.2119 81.6963 77.9658C81.6781 77.7197 81.6689 77.5192 81.6689 77.3643V74.3633H82.8037V85H81.8877L81.7168 83.9336H81.6689C81.5277 84.1569 81.3477 84.3597 81.1289 84.542C80.9147 84.7243 80.6572 84.8701 80.3564 84.9795C80.0602 85.0843 79.7093 85.1367 79.3037 85.1367ZM79.4814 84.1934C80.2835 84.1934 80.8509 83.9655 81.1836 83.5098C81.5163 83.054 81.6826 82.3773 81.6826 81.4795V81.2744C81.6826 80.3219 81.5231 79.5905 81.2041 79.0801C80.8896 78.5697 80.3154 78.3145 79.4814 78.3145C78.7842 78.3145 78.2624 78.5833 77.916 79.1211C77.5697 79.6543 77.3965 80.3835 77.3965 81.3086C77.3965 82.2292 77.5674 82.9401 77.9092 83.4414C78.2555 83.9427 78.7796 84.1934 79.4814 84.1934ZM88.0947 77.3711C88.7327 77.3711 89.2796 77.5124 89.7354 77.7949C90.1911 78.0775 90.5397 78.474 90.7812 78.9844C91.0228 79.4902 91.1436 80.0827 91.1436 80.7617V81.4658H85.9688C85.9824 82.3454 86.2012 83.0153 86.625 83.4756C87.0488 83.9359 87.6458 84.166 88.416 84.166C88.89 84.166 89.3092 84.1227 89.6738 84.0361C90.0384 83.9495 90.4167 83.8219 90.8086 83.6533V84.6514C90.4303 84.82 90.0544 84.943 89.6807 85.0205C89.3115 85.098 88.874 85.1367 88.3682 85.1367C87.6481 85.1367 87.0192 84.9909 86.4814 84.6992C85.9482 84.403 85.5335 83.9701 85.2373 83.4004C84.9411 82.8307 84.793 82.1335 84.793 81.3086C84.793 80.502 84.9274 79.8047 85.1963 79.2168C85.4697 78.6243 85.8525 78.1686 86.3447 77.8496C86.8415 77.5306 87.4248 77.3711 88.0947 77.3711ZM88.0811 78.3008C87.4749 78.3008 86.9919 78.499 86.6318 78.8955C86.2718 79.292 86.0576 79.8457 85.9893 80.5566H89.9541C89.9495 80.11 89.8789 79.7181 89.7422 79.3809C89.61 79.0391 89.4072 78.7747 89.1338 78.5879C88.8604 78.3965 88.5094 78.3008 88.0811 78.3008ZM98.3555 85L95.5117 77.5078H96.7285L98.376 82.04C98.4899 82.3499 98.6061 82.6917 98.7246 83.0654C98.8431 83.4391 98.9251 83.7399 98.9707 83.9678H99.0186C99.0732 83.7399 99.1644 83.4391 99.292 83.0654C99.4196 82.6872 99.5358 82.3454 99.6406 82.04L101.288 77.5078H102.505L99.6543 85H98.3555ZM104.843 77.5078V85H103.708V77.5078H104.843ZM104.289 74.7051C104.476 74.7051 104.635 74.7666 104.768 74.8896C104.904 75.0081 104.973 75.195 104.973 75.4502C104.973 75.7008 104.904 75.8877 104.768 76.0107C104.635 76.1338 104.476 76.1953 104.289 76.1953C104.093 76.1953 103.929 76.1338 103.797 76.0107C103.669 75.8877 103.605 75.7008 103.605 75.4502C103.605 75.195 103.669 75.0081 103.797 74.8896C103.929 74.7666 104.093 74.7051 104.289 74.7051ZM109.915 85.1367C108.967 85.1367 108.215 84.8132 107.659 84.166C107.108 83.5189 106.832 82.5573 106.832 81.2812C106.832 79.9915 107.115 79.0186 107.68 78.3623C108.245 77.7015 108.997 77.3711 109.936 77.3711C110.332 77.3711 110.678 77.4235 110.975 77.5283C111.271 77.6331 111.526 77.7744 111.74 77.9521C111.954 78.1253 112.134 78.3236 112.28 78.5469H112.362C112.344 78.4056 112.326 78.2119 112.308 77.9658C112.289 77.7197 112.28 77.5192 112.28 77.3643V74.3633H113.415V85H112.499L112.328 83.9336H112.28C112.139 84.1569 111.959 84.3597 111.74 84.542C111.526 84.7243 111.269 84.8701 110.968 84.9795C110.672 85.0843 110.321 85.1367 109.915 85.1367ZM110.093 84.1934C110.895 84.1934 111.462 83.9655 111.795 83.5098C112.128 83.054 112.294 82.3773 112.294 81.4795V81.2744C112.294 80.3219 112.134 79.5905 111.815 79.0801C111.501 78.5697 110.927 78.3145 110.093 78.3145C109.396 78.3145 108.874 78.5833 108.527 79.1211C108.181 79.6543 108.008 80.3835 108.008 81.3086C108.008 82.2292 108.179 82.9401 108.521 83.4414C108.867 83.9427 109.391 84.1934 110.093 84.1934ZM118.624 77.3848C119.517 77.3848 120.18 77.5853 120.613 77.9863C121.046 78.3874 121.263 79.0277 121.263 79.9072V85H120.436L120.217 83.8926H120.162C119.952 84.166 119.734 84.3962 119.506 84.583C119.278 84.7653 119.014 84.9043 118.713 85C118.417 85.0911 118.052 85.1367 117.619 85.1367C117.163 85.1367 116.758 85.057 116.402 84.8975C116.051 84.738 115.773 84.4964 115.568 84.1729C115.368 83.8493 115.268 83.4391 115.268 82.9424C115.268 82.195 115.564 81.6208 116.156 81.2197C116.749 80.8187 117.651 80.5999 118.863 80.5635L120.155 80.5088V80.0508C120.155 79.4036 120.016 78.9502 119.738 78.6904C119.46 78.4307 119.068 78.3008 118.562 78.3008C118.171 78.3008 117.797 78.3577 117.441 78.4717C117.086 78.5856 116.749 78.7201 116.43 78.875L116.081 78.0137C116.418 77.8405 116.806 77.6924 117.243 77.5693C117.681 77.4463 118.141 77.3848 118.624 77.3848ZM120.142 81.3086L119 81.3564C118.066 81.3929 117.407 81.5456 117.024 81.8145C116.642 82.0833 116.45 82.4639 116.45 82.9561C116.45 83.3844 116.58 83.7012 116.84 83.9062C117.1 84.1113 117.444 84.2139 117.872 84.2139C118.537 84.2139 119.082 84.0293 119.506 83.6602C119.93 83.291 120.142 82.7373 120.142 81.999V81.3086ZM123.43 84.2891C123.43 83.9701 123.507 83.7445 123.662 83.6123C123.817 83.4756 124.006 83.4072 124.229 83.4072C124.462 83.4072 124.658 83.4756 124.817 83.6123C124.977 83.7445 125.057 83.9701 125.057 84.2891C125.057 84.6035 124.977 84.8337 124.817 84.9795C124.658 85.1208 124.462 85.1914 124.229 85.1914C124.006 85.1914 123.817 85.1208 123.662 84.9795C123.507 84.8337 123.43 84.6035 123.43 84.2891Z" fill="#7D7987"/>
</g>
<defs>
<clipPath id="clip0_1_12">
<rect width="24" height="24" fill="white" transform="translate(0 0.5)"/>
</clipPath>
</defs>
</svg>
